<mxfile modified="2021-01-16T21:53:53.543Z" host="app.diagrams.net" agent="5.0 (Windows NT 10.0; Win64; x64) AppleWebKit/537.36 (KHTML, like Gecko) Chrome/87.0.4280.88 Safari/537.36 Edg/87.0.664.66" etag="fBC1bRLQMTkREdLPk5ru" version="14.2.3" type="github" pages="3">
  <diagram id="Ht1M8jgEwFfnCIfOTk4-" name="Page-1">
    <mxGraphModel dx="2290" dy="1291" grid="1" gridSize="10" guides="1" tooltips="1" connect="1" arrows="1" fold="1" page="1" pageScale="1" pageWidth="1169" pageHeight="827" math="0" shadow="0">
      <root>
        <mxCell id="0" />
        <mxCell id="1" parent="0" />
        <mxCell id="-QjtrjUzRDEMRZ5MF8oH-14" value="Amazon SageMaker" style="whiteSpace=wrap;html=1;fillColor=none;fontSize=14;fontColor=#000000;dashed=0;fontStyle=0;align=center;verticalAlign=top;strokeColor=#D86613;gradientColor=none;spacingLeft=0;labelPosition=center;verticalLabelPosition=bottom;" parent="1" vertex="1">
          <mxGeometry x="872.5" y="174.5" width="232" height="160" as="geometry" />
        </mxCell>
        <mxCell id="SCVMTBWpLvtzJIhz15lM-34" value="" style="whiteSpace=wrap;html=1;fillColor=none;fontSize=14;fontColor=#000000;dashed=0;fontStyle=0;align=center;verticalAlign=top;strokeColor=#CCCCCC;gradientColor=none;spacingLeft=0;labelPosition=center;verticalLabelPosition=bottom;" parent="1" vertex="1">
          <mxGeometry x="882.5" y="257.5" width="210" height="70" as="geometry" />
        </mxCell>
        <mxCell id="-QjtrjUzRDEMRZ5MF8oH-1" value="" style="outlineConnect=0;fontColor=#232F3E;gradientColor=none;fillColor=#277116;strokeColor=none;dashed=0;verticalLabelPosition=bottom;verticalAlign=top;align=center;html=1;fontSize=12;fontStyle=0;aspect=fixed;pointerEvents=1;shape=mxgraph.aws4.door_lock;" parent="1" vertex="1">
          <mxGeometry x="64.5" y="260.5" width="78" height="78" as="geometry" />
        </mxCell>
        <mxCell id="-QjtrjUzRDEMRZ5MF8oH-2" value="" style="outlineConnect=0;fontColor=#232F3E;gradientColor=none;fillColor=#277116;strokeColor=none;dashed=0;verticalLabelPosition=bottom;verticalAlign=top;align=center;html=1;fontSize=12;fontStyle=0;aspect=fixed;pointerEvents=1;shape=mxgraph.aws4.car;" parent="1" vertex="1">
          <mxGeometry x="64.5" y="356" width="78" height="78" as="geometry" />
        </mxCell>
        <mxCell id="-QjtrjUzRDEMRZ5MF8oH-3" value="" style="outlineConnect=0;fontColor=#232F3E;gradientColor=none;fillColor=#277116;strokeColor=none;dashed=0;verticalLabelPosition=bottom;verticalAlign=top;align=center;html=1;fontSize=12;fontStyle=0;aspect=fixed;pointerEvents=1;shape=mxgraph.aws4.camera;" parent="1" vertex="1">
          <mxGeometry x="64.5" y="451.5" width="78" height="78" as="geometry" />
        </mxCell>
        <mxCell id="-QjtrjUzRDEMRZ5MF8oH-4" value="" style="outlineConnect=0;fontColor=#232F3E;gradientColor=none;fillColor=#277116;strokeColor=none;dashed=0;verticalLabelPosition=bottom;verticalAlign=top;align=center;html=1;fontSize=12;fontStyle=0;aspect=fixed;pointerEvents=1;shape=mxgraph.aws4.utility;" parent="1" vertex="1">
          <mxGeometry x="165.5" y="306.5" width="78" height="78" as="geometry" />
        </mxCell>
        <mxCell id="-QjtrjUzRDEMRZ5MF8oH-5" value="" style="outlineConnect=0;fontColor=#232F3E;gradientColor=none;fillColor=#277116;strokeColor=none;dashed=0;verticalLabelPosition=bottom;verticalAlign=top;align=center;html=1;fontSize=12;fontStyle=0;aspect=fixed;pointerEvents=1;shape=mxgraph.aws4.coffee_pot;" parent="1" vertex="1">
          <mxGeometry x="166.5" y="410.5" width="78" height="78" as="geometry" />
        </mxCell>
        <mxCell id="-QjtrjUzRDEMRZ5MF8oH-6" value="" style="outlineConnect=0;fontColor=#232F3E;gradientColor=none;fillColor=#277116;strokeColor=none;dashed=0;verticalLabelPosition=bottom;verticalAlign=top;align=center;html=1;fontSize=12;fontStyle=0;aspect=fixed;pointerEvents=1;shape=mxgraph.aws4.lightbulb;" parent="1" vertex="1">
          <mxGeometry x="263.5" y="260.5" width="78" height="78" as="geometry" />
        </mxCell>
        <mxCell id="-QjtrjUzRDEMRZ5MF8oH-7" value="" style="outlineConnect=0;fontColor=#232F3E;gradientColor=none;fillColor=#277116;strokeColor=none;dashed=0;verticalLabelPosition=bottom;verticalAlign=top;align=center;html=1;fontSize=12;fontStyle=0;aspect=fixed;pointerEvents=1;shape=mxgraph.aws4.house;" parent="1" vertex="1">
          <mxGeometry x="261.5" y="356" width="78" height="78" as="geometry" />
        </mxCell>
        <mxCell id="-QjtrjUzRDEMRZ5MF8oH-8" value="" style="outlineConnect=0;fontColor=#232F3E;gradientColor=none;fillColor=#277116;strokeColor=none;dashed=0;verticalLabelPosition=bottom;verticalAlign=top;align=center;html=1;fontSize=12;fontStyle=0;aspect=fixed;pointerEvents=1;shape=mxgraph.aws4.thermostat;" parent="1" vertex="1">
          <mxGeometry x="261.5" y="451.5" width="78" height="78" as="geometry" />
        </mxCell>
        <mxCell id="-QjtrjUzRDEMRZ5MF8oH-9" value="1" style="rounded=1;whiteSpace=wrap;html=1;fillColor=#007CBD;strokeColor=none;fontColor=#FFFFFF;fontStyle=1;fontSize=22;" parent="1" vertex="1">
          <mxGeometry x="223.5" y="211.5" width="40" height="38" as="geometry" />
        </mxCell>
        <mxCell id="-QjtrjUzRDEMRZ5MF8oH-10" value="ML Model Executable" style="outlineConnect=0;fontColor=#232F3E;gradientColor=none;fillColor=#116D5B;strokeColor=none;dashed=0;verticalLabelPosition=bottom;verticalAlign=top;align=center;html=1;fontSize=12;fontStyle=0;aspect=fixed;pointerEvents=1;shape=mxgraph.aws4.sagemaker_model;" parent="1" vertex="1">
          <mxGeometry x="473.5" y="244.5" width="78" height="78" as="geometry" />
        </mxCell>
        <mxCell id="-QjtrjUzRDEMRZ5MF8oH-11" value="AWS Lambda Function" style="outlineConnect=0;fontColor=#232F3E;gradientColor=none;fillColor=#277116;strokeColor=none;dashed=0;verticalLabelPosition=bottom;verticalAlign=top;align=center;html=1;fontSize=12;fontStyle=0;aspect=fixed;pointerEvents=1;shape=mxgraph.aws4.lambda_function;" parent="1" vertex="1">
          <mxGeometry x="473.5" y="349.5" width="78" height="78" as="geometry" />
        </mxCell>
        <mxCell id="-QjtrjUzRDEMRZ5MF8oH-12" value="AWS IoT Greengrass Core" style="outlineConnect=0;fontColor=#232F3E;gradientColor=#60A337;gradientDirection=north;fillColor=#277116;strokeColor=#ffffff;dashed=0;verticalLabelPosition=bottom;verticalAlign=top;align=center;html=1;fontSize=12;fontStyle=0;aspect=fixed;shape=mxgraph.aws4.resourceIcon;resIcon=mxgraph.aws4.greengrass;" parent="1" vertex="1">
          <mxGeometry x="473.5" y="457.5" width="78" height="78" as="geometry" />
        </mxCell>
        <mxCell id="-QjtrjUzRDEMRZ5MF8oH-16" value="AWS IoT Core" style="outlineConnect=0;fontColor=#232F3E;gradientColor=#60A337;gradientDirection=north;fillColor=#277116;strokeColor=#ffffff;dashed=0;verticalLabelPosition=bottom;verticalAlign=top;align=center;html=1;fontSize=12;fontStyle=0;aspect=fixed;shape=mxgraph.aws4.resourceIcon;resIcon=mxgraph.aws4.internet_of_things;" parent="1" vertex="1">
          <mxGeometry x="745.5" y="451.5" width="78" height="78" as="geometry" />
        </mxCell>
        <mxCell id="-QjtrjUzRDEMRZ5MF8oH-17" value="AWS IoT Analytics" style="outlineConnect=0;fontColor=#232F3E;gradientColor=#60A337;gradientDirection=north;fillColor=#277116;strokeColor=#ffffff;dashed=0;verticalLabelPosition=bottom;verticalAlign=top;align=center;html=1;fontSize=12;fontStyle=0;aspect=fixed;shape=mxgraph.aws4.resourceIcon;resIcon=mxgraph.aws4.iot_analytics;" parent="1" vertex="1">
          <mxGeometry x="949.5" y="451.5" width="78" height="78" as="geometry" />
        </mxCell>
        <mxCell id="-QjtrjUzRDEMRZ5MF8oH-18" value="ML Model Executable" style="outlineConnect=0;fontColor=#232F3E;gradientColor=none;fillColor=#116D5B;strokeColor=none;dashed=0;verticalLabelPosition=bottom;verticalAlign=top;align=center;html=1;fontSize=12;fontStyle=0;aspect=fixed;pointerEvents=1;shape=mxgraph.aws4.sagemaker_model;" parent="1" vertex="1">
          <mxGeometry x="136.5" y="691.5" width="78" height="78" as="geometry" />
        </mxCell>
        <mxCell id="-QjtrjUzRDEMRZ5MF8oH-19" value="AWS IoT Greengrass Core" style="outlineConnect=0;fontColor=#232F3E;gradientColor=#60A337;gradientDirection=north;fillColor=#277116;strokeColor=#ffffff;dashed=0;verticalLabelPosition=bottom;verticalAlign=top;align=center;html=1;fontSize=12;fontStyle=0;aspect=fixed;shape=mxgraph.aws4.resourceIcon;resIcon=mxgraph.aws4.iot_core;" parent="1" vertex="1">
          <mxGeometry x="137.5" y="796" width="78" height="78" as="geometry" />
        </mxCell>
        <mxCell id="-QjtrjUzRDEMRZ5MF8oH-20" value="Video Camera" style="outlineConnect=0;fontColor=#232F3E;gradientColor=none;fillColor=#277116;strokeColor=none;dashed=0;verticalLabelPosition=bottom;verticalAlign=top;align=center;html=1;fontSize=12;fontStyle=0;aspect=fixed;pointerEvents=1;shape=mxgraph.aws4.camera;" parent="1" vertex="1">
          <mxGeometry x="137.5" y="903.5" width="78" height="78" as="geometry" />
        </mxCell>
        <mxCell id="-QjtrjUzRDEMRZ5MF8oH-21" value="AWS IoT Core" style="outlineConnect=0;fontColor=#232F3E;gradientColor=#60A337;gradientDirection=north;fillColor=#277116;strokeColor=#ffffff;dashed=0;verticalLabelPosition=bottom;verticalAlign=top;align=center;html=1;fontSize=12;fontStyle=0;aspect=fixed;shape=mxgraph.aws4.resourceIcon;resIcon=mxgraph.aws4.internet_of_things;" parent="1" vertex="1">
          <mxGeometry x="352.5" y="711.5" width="78" height="78" as="geometry" />
        </mxCell>
        <mxCell id="-QjtrjUzRDEMRZ5MF8oH-22" value="AWS IoT Analytics" style="outlineConnect=0;fontColor=#232F3E;gradientColor=#60A337;gradientDirection=north;fillColor=#277116;strokeColor=#ffffff;dashed=0;verticalLabelPosition=bottom;verticalAlign=top;align=center;html=1;fontSize=12;fontStyle=0;aspect=fixed;shape=mxgraph.aws4.resourceIcon;resIcon=mxgraph.aws4.iot_analytics;" parent="1" vertex="1">
          <mxGeometry x="532.5" y="708.5" width="78" height="78" as="geometry" />
        </mxCell>
        <mxCell id="-QjtrjUzRDEMRZ5MF8oH-23" value="AWS IoT Events" style="outlineConnect=0;fontColor=#232F3E;gradientColor=#60A337;gradientDirection=north;fillColor=#277116;strokeColor=#ffffff;dashed=0;verticalLabelPosition=bottom;verticalAlign=top;align=center;html=1;fontSize=12;fontStyle=0;aspect=fixed;shape=mxgraph.aws4.resourceIcon;resIcon=mxgraph.aws4.iot_events;" parent="1" vertex="1">
          <mxGeometry x="721.5" y="708.5" width="78" height="78" as="geometry" />
        </mxCell>
        <mxCell id="-QjtrjUzRDEMRZ5MF8oH-24" value="Amazon SNS" style="outlineConnect=0;fontColor=#232F3E;gradientColor=#F34482;gradientDirection=north;fillColor=#BC1356;strokeColor=#ffffff;dashed=0;verticalLabelPosition=bottom;verticalAlign=top;align=center;html=1;fontSize=12;fontStyle=0;aspect=fixed;shape=mxgraph.aws4.resourceIcon;resIcon=mxgraph.aws4.sns;" parent="1" vertex="1">
          <mxGeometry x="902.5" y="708.5" width="78" height="78" as="geometry" />
        </mxCell>
        <mxCell id="-QjtrjUzRDEMRZ5MF8oH-25" value="Amazon Kinesis&lt;br&gt;Video Streams&lt;br&gt;" style="outlineConnect=0;fontColor=#232F3E;gradientColor=#945DF2;gradientDirection=north;fillColor=#5A30B5;strokeColor=#ffffff;dashed=0;verticalLabelPosition=bottom;verticalAlign=top;align=center;html=1;fontSize=12;fontStyle=0;aspect=fixed;shape=mxgraph.aws4.resourceIcon;resIcon=mxgraph.aws4.kinesis_video_streams;" parent="1" vertex="1">
          <mxGeometry x="484.5" y="874.5" width="78" height="78" as="geometry" />
        </mxCell>
        <mxCell id="-QjtrjUzRDEMRZ5MF8oH-26" value="Mobile Application" style="outlineConnect=0;fontColor=#232F3E;gradientColor=#F54749;gradientDirection=north;fillColor=#C7131F;strokeColor=#ffffff;dashed=0;verticalLabelPosition=bottom;verticalAlign=top;align=center;html=1;fontSize=12;fontStyle=0;aspect=fixed;shape=mxgraph.aws4.resourceIcon;resIcon=mxgraph.aws4.mobile;" parent="1" vertex="1">
          <mxGeometry x="785.5" y="873.5" width="78" height="78" as="geometry" />
        </mxCell>
        <mxCell id="-QjtrjUzRDEMRZ5MF8oH-27" value="2" style="rounded=1;whiteSpace=wrap;html=1;fillColor=#007CBD;strokeColor=none;fontColor=#FFFFFF;fontStyle=1;fontSize=22;" parent="1" vertex="1">
          <mxGeometry x="483.5" y="164.5" width="40" height="38" as="geometry" />
        </mxCell>
        <mxCell id="-QjtrjUzRDEMRZ5MF8oH-28" value="3" style="rounded=1;whiteSpace=wrap;html=1;fillColor=#007CBD;strokeColor=none;fontColor=#FFFFFF;fontStyle=1;fontSize=22;" parent="1" vertex="1">
          <mxGeometry x="823.5" y="175.5" width="40" height="38" as="geometry" />
        </mxCell>
        <mxCell id="-QjtrjUzRDEMRZ5MF8oH-29" value="4" style="rounded=1;whiteSpace=wrap;html=1;fillColor=#007CBD;strokeColor=none;fontColor=#FFFFFF;fontStyle=1;fontSize=22;" parent="1" vertex="1">
          <mxGeometry x="633.5" y="399.5" width="40" height="38" as="geometry" />
        </mxCell>
        <mxCell id="-QjtrjUzRDEMRZ5MF8oH-30" value="5" style="rounded=1;whiteSpace=wrap;html=1;fillColor=#007CBD;strokeColor=none;fontColor=#FFFFFF;fontStyle=1;fontSize=22;" parent="1" vertex="1">
          <mxGeometry x="878.5" y="399.5" width="40" height="38" as="geometry" />
        </mxCell>
        <mxCell id="-QjtrjUzRDEMRZ5MF8oH-31" value="6" style="rounded=1;whiteSpace=wrap;html=1;fillColor=#007CBD;strokeColor=none;fontColor=#FFFFFF;fontStyle=1;fontSize=22;" parent="1" vertex="1">
          <mxGeometry x="136.5" y="608.5" width="40" height="38" as="geometry" />
        </mxCell>
        <mxCell id="-QjtrjUzRDEMRZ5MF8oH-32" value="7" style="rounded=1;whiteSpace=wrap;html=1;fillColor=#007CBD;strokeColor=none;fontColor=#FFFFFF;fontStyle=1;fontSize=22;" parent="1" vertex="1">
          <mxGeometry x="462.5" y="666.5" width="40" height="38" as="geometry" />
        </mxCell>
        <mxCell id="-QjtrjUzRDEMRZ5MF8oH-33" value="8" style="rounded=1;whiteSpace=wrap;html=1;fillColor=#007CBD;strokeColor=none;fontColor=#FFFFFF;fontStyle=1;fontSize=22;" parent="1" vertex="1">
          <mxGeometry x="832.5" y="666.5" width="40" height="38" as="geometry" />
        </mxCell>
        <mxCell id="-QjtrjUzRDEMRZ5MF8oH-34" value="9" style="rounded=1;whiteSpace=wrap;html=1;fillColor=#007CBD;strokeColor=none;fontColor=#FFFFFF;fontStyle=1;fontSize=22;" parent="1" vertex="1">
          <mxGeometry x="352.5" y="854.5" width="40" height="38" as="geometry" />
        </mxCell>
        <mxCell id="-QjtrjUzRDEMRZ5MF8oH-35" value="10" style="rounded=1;whiteSpace=wrap;html=1;fillColor=#007CBD;strokeColor=none;fontColor=#FFFFFF;fontStyle=1;fontSize=22;" parent="1" vertex="1">
          <mxGeometry x="652.5" y="854.5" width="40" height="38" as="geometry" />
        </mxCell>
        <mxCell id="-QjtrjUzRDEMRZ5MF8oH-47" value="Title text" style="text;html=1;resizable=0;points=[];autosize=1;align=left;verticalAlign=top;spacingTop=-4;fontSize=30;fontStyle=1" parent="1" vertex="1">
          <mxGeometry x="56.5" y="64.5" width="130" height="40" as="geometry" />
        </mxCell>
        <mxCell id="-QjtrjUzRDEMRZ5MF8oH-48" value="Subtitle text&lt;br style=&quot;font-size: 16px&quot;&gt;" style="text;html=1;resizable=0;points=[];autosize=1;align=left;verticalAlign=top;spacingTop=-4;fontSize=16;" parent="1" vertex="1">
          <mxGeometry x="56.5" y="114.5" width="100" height="20" as="geometry" />
        </mxCell>
        <mxCell id="-QjtrjUzRDEMRZ5MF8oH-49" value="Label" style="text;html=1;resizable=0;points=[];autosize=1;align=left;verticalAlign=top;spacingTop=-4;fontSize=16;fontStyle=1" parent="1" vertex="1">
          <mxGeometry x="84.5" y="164.5" width="50" height="20" as="geometry" />
        </mxCell>
        <mxCell id="SCVMTBWpLvtzJIhz15lM-1" value="" style="line;strokeWidth=2;html=1;fontSize=14;" parent="1" vertex="1">
          <mxGeometry x="52.5" y="139.5" width="1060" height="10" as="geometry" />
        </mxCell>
        <mxCell id="SCVMTBWpLvtzJIhz15lM-2" value="&lt;span&gt;Label&lt;/span&gt;" style="text;html=1;resizable=0;points=[];autosize=1;align=left;verticalAlign=top;spacingTop=-4;fontSize=14;fontStyle=1" parent="1" vertex="1">
          <mxGeometry x="442.5" y="216.5" width="50" height="20" as="geometry" />
        </mxCell>
        <mxCell id="SCVMTBWpLvtzJIhz15lM-3" value="" style="edgeStyle=orthogonalEdgeStyle;html=1;endArrow=open;elbow=vertical;startArrow=none;endFill=0;strokeColor=#545B64;rounded=0;fontSize=14;" parent="1" edge="1">
          <mxGeometry width="100" relative="1" as="geometry">
            <mxPoint x="354.5" y="394.5" as="sourcePoint" />
            <mxPoint x="404.5" y="394.5" as="targetPoint" />
          </mxGeometry>
        </mxCell>
        <mxCell id="SCVMTBWpLvtzJIhz15lM-5" value="" style="shape=curlyBracket;whiteSpace=wrap;html=1;rounded=1;fontSize=14;" parent="1" vertex="1">
          <mxGeometry x="415.5" y="248.5" width="20" height="290" as="geometry" />
        </mxCell>
        <mxCell id="SCVMTBWpLvtzJIhz15lM-17" value="&lt;span&gt;Label&lt;/span&gt;" style="edgeStyle=orthogonalEdgeStyle;html=1;endArrow=open;elbow=vertical;startArrow=none;endFill=0;strokeColor=#545B64;rounded=0;fontSize=14;strokeWidth=2;" parent="1" edge="1">
          <mxGeometry x="-0.037" y="20" width="100" relative="1" as="geometry">
            <mxPoint x="584.5" y="254.5" as="sourcePoint" />
            <mxPoint x="854.5" y="254.5" as="targetPoint" />
            <mxPoint as="offset" />
          </mxGeometry>
        </mxCell>
        <mxCell id="SCVMTBWpLvtzJIhz15lM-18" value="&lt;span&gt;Label&lt;/span&gt;" style="edgeStyle=orthogonalEdgeStyle;html=1;endArrow=none;elbow=vertical;startArrow=open;endFill=0;strokeColor=#545B64;rounded=0;fontSize=14;strokeWidth=2;startFill=0;" parent="1" edge="1">
          <mxGeometry x="-0.037" y="20" width="100" relative="1" as="geometry">
            <mxPoint x="582.5" y="318" as="sourcePoint" />
            <mxPoint x="852.5" y="318" as="targetPoint" />
            <mxPoint as="offset" />
          </mxGeometry>
        </mxCell>
        <mxCell id="SCVMTBWpLvtzJIhz15lM-19" value="&lt;span&gt;Label&lt;/span&gt;" style="edgeStyle=orthogonalEdgeStyle;html=1;endArrow=open;elbow=vertical;startArrow=none;endFill=0;strokeColor=#545B64;rounded=0;fontSize=14;strokeWidth=2;" parent="1" edge="1">
          <mxGeometry x="-0.037" y="20" width="100" relative="1" as="geometry">
            <mxPoint x="594.5000000000002" y="484.5" as="sourcePoint" />
            <mxPoint x="714.5" y="484.5" as="targetPoint" />
            <mxPoint as="offset" />
          </mxGeometry>
        </mxCell>
        <mxCell id="SCVMTBWpLvtzJIhz15lM-20" value="&lt;span&gt;Label&lt;/span&gt;" style="edgeStyle=orthogonalEdgeStyle;html=1;endArrow=open;elbow=vertical;startArrow=none;endFill=0;strokeColor=#545B64;rounded=0;fontSize=14;strokeWidth=2;" parent="1" edge="1">
          <mxGeometry x="-0.037" y="20" width="100" relative="1" as="geometry">
            <mxPoint x="838.5000000000002" y="487.5" as="sourcePoint" />
            <mxPoint x="924.5" y="487.5" as="targetPoint" />
            <mxPoint as="offset" />
          </mxGeometry>
        </mxCell>
        <mxCell id="SCVMTBWpLvtzJIhz15lM-21" value="Label" style="text;html=1;resizable=0;points=[];autosize=1;align=left;verticalAlign=top;spacingTop=-4;fontSize=16;fontStyle=1" parent="1" vertex="1">
          <mxGeometry x="66.5" y="576.5" width="50" height="20" as="geometry" />
        </mxCell>
        <mxCell id="SCVMTBWpLvtzJIhz15lM-22" value="&lt;span&gt;Label&lt;/span&gt;" style="text;html=1;resizable=0;points=[];autosize=1;align=left;verticalAlign=top;spacingTop=-4;fontSize=14;fontStyle=1" parent="1" vertex="1">
          <mxGeometry x="136.5" y="656.5" width="50" height="20" as="geometry" />
        </mxCell>
        <mxCell id="SCVMTBWpLvtzJIhz15lM-23" value="" style="shape=curlyBracket;whiteSpace=wrap;html=1;rounded=1;fontSize=14;" parent="1" vertex="1">
          <mxGeometry x="76.5" y="691.5" width="20" height="290" as="geometry" />
        </mxCell>
        <mxCell id="SCVMTBWpLvtzJIhz15lM-24" value="Video Events" style="edgeStyle=orthogonalEdgeStyle;html=1;endArrow=open;elbow=vertical;startArrow=none;endFill=0;strokeColor=#545B64;rounded=0;fontSize=14;strokeWidth=2;" parent="1" edge="1">
          <mxGeometry x="-0.037" y="20" width="100" relative="1" as="geometry">
            <mxPoint x="261.5" y="753.5" as="sourcePoint" />
            <mxPoint x="342.5" y="753.5" as="targetPoint" />
            <mxPoint as="offset" />
          </mxGeometry>
        </mxCell>
        <mxCell id="SCVMTBWpLvtzJIhz15lM-25" value="" style="edgeStyle=orthogonalEdgeStyle;html=1;endArrow=open;elbow=vertical;startArrow=none;endFill=0;strokeColor=#545B64;rounded=0;fontSize=14;strokeWidth=2;" parent="1" edge="1">
          <mxGeometry x="-0.037" y="20" width="100" relative="1" as="geometry">
            <mxPoint x="443" y="750" as="sourcePoint" />
            <mxPoint x="524" y="750" as="targetPoint" />
            <mxPoint as="offset" />
          </mxGeometry>
        </mxCell>
        <mxCell id="SCVMTBWpLvtzJIhz15lM-26" value="" style="edgeStyle=orthogonalEdgeStyle;html=1;endArrow=open;elbow=vertical;startArrow=none;endFill=0;strokeColor=#545B64;rounded=0;fontSize=14;strokeWidth=2;" parent="1" edge="1">
          <mxGeometry x="-0.037" y="20" width="100" relative="1" as="geometry">
            <mxPoint x="622.5" y="750" as="sourcePoint" />
            <mxPoint x="703.5" y="750" as="targetPoint" />
            <mxPoint as="offset" />
          </mxGeometry>
        </mxCell>
        <mxCell id="SCVMTBWpLvtzJIhz15lM-27" value="" style="edgeStyle=orthogonalEdgeStyle;html=1;endArrow=open;elbow=vertical;startArrow=none;endFill=0;strokeColor=#545B64;rounded=0;fontSize=14;strokeWidth=2;" parent="1" edge="1">
          <mxGeometry x="-0.037" y="20" width="100" relative="1" as="geometry">
            <mxPoint x="811.5" y="747.5" as="sourcePoint" />
            <mxPoint x="892.5" y="747.5" as="targetPoint" />
            <mxPoint as="offset" />
          </mxGeometry>
        </mxCell>
        <mxCell id="SCVMTBWpLvtzJIhz15lM-28" value="Video Stream" style="edgeStyle=orthogonalEdgeStyle;html=1;endArrow=open;elbow=vertical;startArrow=none;endFill=0;strokeColor=#545B64;rounded=0;fontSize=14;strokeWidth=2;" parent="1" edge="1">
          <mxGeometry x="0.0038" y="-11" width="100" relative="1" as="geometry">
            <mxPoint x="262" y="913" as="sourcePoint" />
            <mxPoint x="472.5" y="913.5" as="targetPoint" />
            <mxPoint as="offset" />
            <Array as="points">
              <mxPoint x="367.5" y="913.5" />
            </Array>
          </mxGeometry>
        </mxCell>
        <mxCell id="SCVMTBWpLvtzJIhz15lM-29" value="" style="edgeStyle=orthogonalEdgeStyle;html=1;endArrow=open;elbow=vertical;startArrow=none;endFill=0;strokeColor=#545B64;rounded=0;fontSize=14;strokeWidth=2;" parent="1" edge="1">
          <mxGeometry x="0.0038" y="-11" width="100" relative="1" as="geometry">
            <mxPoint x="575.0714285714287" y="913.2142857142858" as="sourcePoint" />
            <mxPoint x="762.5" y="913.5" as="targetPoint" />
            <mxPoint as="offset" />
            <Array as="points">
              <mxPoint x="680.5" y="913.5" />
            </Array>
          </mxGeometry>
        </mxCell>
        <mxCell id="SCVMTBWpLvtzJIhz15lM-30" value="Build" style="outlineConnect=0;gradientColor=none;fontColor=#545B64;strokeColor=none;fillColor=#879196;dashed=0;verticalLabelPosition=bottom;verticalAlign=top;align=center;html=1;fontSize=12;fontStyle=0;aspect=fixed;shape=mxgraph.aws4.illustration_devices;pointerEvents=1" parent="1" vertex="1">
          <mxGeometry x="962.5" y="179.5" width="52" height="38" as="geometry" />
        </mxCell>
        <mxCell id="SCVMTBWpLvtzJIhz15lM-31" value="Train" style="outlineConnect=0;gradientColor=none;fontColor=#545B64;strokeColor=none;fillColor=#879196;dashed=0;verticalLabelPosition=bottom;verticalAlign=top;align=center;html=1;fontSize=12;fontStyle=0;aspect=fixed;shape=mxgraph.aws4.illustration_devices;pointerEvents=1" parent="1" vertex="1">
          <mxGeometry x="892.5" y="267.5" width="52" height="38" as="geometry" />
        </mxCell>
        <mxCell id="SCVMTBWpLvtzJIhz15lM-32" value="Optimize" style="outlineConnect=0;gradientColor=none;fontColor=#545B64;strokeColor=none;fillColor=#879196;dashed=0;verticalLabelPosition=bottom;verticalAlign=top;align=center;html=1;fontSize=12;fontStyle=0;aspect=fixed;shape=mxgraph.aws4.illustration_devices;pointerEvents=1" parent="1" vertex="1">
          <mxGeometry x="1032.5" y="267.5" width="52" height="38" as="geometry" />
        </mxCell>
        <mxCell id="SCVMTBWpLvtzJIhz15lM-33" value="" style="edgeStyle=orthogonalEdgeStyle;html=1;endArrow=open;elbow=vertical;startArrow=none;endFill=0;strokeColor=#545B64;rounded=0;fontSize=14;" parent="1" edge="1">
          <mxGeometry width="100" relative="1" as="geometry">
            <mxPoint x="958.5" y="293.5" as="sourcePoint" />
            <mxPoint x="1018.5" y="293.5" as="targetPoint" />
          </mxGeometry>
        </mxCell>
        <mxCell id="SCVMTBWpLvtzJIhz15lM-35" value="" style="edgeStyle=orthogonalEdgeStyle;html=1;endArrow=open;elbow=vertical;startArrow=none;endFill=0;strokeColor=#545B64;rounded=0;fontSize=14;" parent="1" edge="1">
          <mxGeometry width="100" relative="1" as="geometry">
            <mxPoint x="992.5" y="236.46774193548387" as="sourcePoint" />
            <mxPoint x="992.5" y="256.4677419354839" as="targetPoint" />
          </mxGeometry>
        </mxCell>
        <mxCell id="7OVz4w7n9kzEPWy-4BBC-3" value="" style="rounded=0;whiteSpace=wrap;html=1;fillColor=#EAEDED;fontSize=22;fontColor=#FFFFFF;strokeColor=none;labelBackgroundColor=none;" parent="1" vertex="1">
          <mxGeometry x="1151" y="51" width="539" height="1220" as="geometry" />
        </mxCell>
        <mxCell id="7OVz4w7n9kzEPWy-4BBC-4" value="1" style="rounded=1;whiteSpace=wrap;html=1;fillColor=#007CBD;strokeColor=none;fontColor=#FFFFFF;fontStyle=1;fontSize=22;labelBackgroundColor=none;" parent="1" vertex="1">
          <mxGeometry x="1169" y="63" width="40" height="38" as="geometry" />
        </mxCell>
        <mxCell id="7OVz4w7n9kzEPWy-4BBC-5" value="2" style="rounded=1;whiteSpace=wrap;html=1;fillColor=#007CBD;strokeColor=none;fontColor=#FFFFFF;fontStyle=1;fontSize=22;labelBackgroundColor=none;" parent="1" vertex="1">
          <mxGeometry x="1167.5" y="185" width="40" height="38" as="geometry" />
        </mxCell>
        <mxCell id="7OVz4w7n9kzEPWy-4BBC-6" value="3" style="rounded=1;whiteSpace=wrap;html=1;fillColor=#007CBD;strokeColor=none;fontColor=#FFFFFF;fontStyle=1;fontSize=22;labelBackgroundColor=none;" parent="1" vertex="1">
          <mxGeometry x="1167.5" y="305" width="40" height="38" as="geometry" />
        </mxCell>
        <mxCell id="7OVz4w7n9kzEPWy-4BBC-7" value="4" style="rounded=1;whiteSpace=wrap;html=1;fillColor=#007CBD;strokeColor=none;fontColor=#FFFFFF;fontStyle=1;fontSize=22;labelBackgroundColor=none;" parent="1" vertex="1">
          <mxGeometry x="1167.5" y="419" width="40" height="38" as="geometry" />
        </mxCell>
        <mxCell id="7OVz4w7n9kzEPWy-4BBC-8" value="5" style="rounded=1;whiteSpace=wrap;html=1;fillColor=#007CBD;strokeColor=none;fontColor=#FFFFFF;fontStyle=1;fontSize=22;labelBackgroundColor=none;" parent="1" vertex="1">
          <mxGeometry x="1169" y="536" width="40" height="38" as="geometry" />
        </mxCell>
        <mxCell id="7OVz4w7n9kzEPWy-4BBC-9" value="6" style="rounded=1;whiteSpace=wrap;html=1;fillColor=#007CBD;strokeColor=none;fontColor=#FFFFFF;fontStyle=1;fontSize=22;labelBackgroundColor=none;" parent="1" vertex="1">
          <mxGeometry x="1170" y="651" width="40" height="38" as="geometry" />
        </mxCell>
        <mxCell id="7OVz4w7n9kzEPWy-4BBC-10" value="7" style="rounded=1;whiteSpace=wrap;html=1;fillColor=#007CBD;strokeColor=none;fontColor=#FFFFFF;fontStyle=1;fontSize=22;labelBackgroundColor=none;" parent="1" vertex="1">
          <mxGeometry x="1169.5" y="767" width="40" height="38" as="geometry" />
        </mxCell>
        <mxCell id="7OVz4w7n9kzEPWy-4BBC-11" value="8" style="rounded=1;whiteSpace=wrap;html=1;fillColor=#007CBD;strokeColor=none;fontColor=#FFFFFF;fontStyle=1;fontSize=22;labelBackgroundColor=none;" parent="1" vertex="1">
          <mxGeometry x="1170" y="885" width="40" height="38" as="geometry" />
        </mxCell>
        <mxCell id="7OVz4w7n9kzEPWy-4BBC-12" value="9" style="rounded=1;whiteSpace=wrap;html=1;fillColor=#007CBD;strokeColor=none;fontColor=#FFFFFF;fontStyle=1;fontSize=22;labelBackgroundColor=none;" parent="1" vertex="1">
          <mxGeometry x="1168" y="1005" width="40" height="38" as="geometry" />
        </mxCell>
        <mxCell id="7OVz4w7n9kzEPWy-4BBC-13" value="&lt;span&gt;Lorem ipsum dolor sit amet, consectetur adipiscing elit, sed do eiusmod tempor incididunt ut labore et dolore magna aliqua. Ut enim ad minim veniam, quis nostrud exercitation ullamco laboris nisi ut aliquip ex ea commodo consequat. Duis aute irure dolor in reprehenderit in voluptate velit esse cillum dolore eu fugiat nulla pariatur. Excepteur sint occaecat cupidatat non proident, sunt in culpa qui officia deserunt mollit anim id est laborum.&lt;/span&gt;&lt;br&gt;" style="text;html=1;align=left;verticalAlign=top;spacingTop=-4;fontSize=14;labelBackgroundColor=none;whiteSpace=wrap;" parent="1" vertex="1">
          <mxGeometry x="1220.5" y="62.5" width="449" height="118" as="geometry" />
        </mxCell>
        <mxCell id="7OVz4w7n9kzEPWy-4BBC-14" value="&lt;span&gt;Lorem ipsum dolor sit amet, consectetur adipiscing elit, sed do eiusmod tempor incididunt ut labore et dolore magna aliqua. Ut enim ad minim veniam, quis nostrud exercitation ullamco laboris nisi ut aliquip ex ea commodo consequat. Duis aute irure dolor in reprehenderit in voluptate velit esse cillum dolore eu fugiat nulla pariatur. Excepteur sint occaecat cupidatat non proident, sunt in culpa qui officia deserunt mollit anim id est laborum.&lt;/span&gt;&lt;br&gt;" style="text;html=1;align=left;verticalAlign=top;spacingTop=-4;fontSize=14;labelBackgroundColor=none;whiteSpace=wrap;" parent="1" vertex="1">
          <mxGeometry x="1219.5" y="185.5" width="450" height="115" as="geometry" />
        </mxCell>
        <mxCell id="7OVz4w7n9kzEPWy-4BBC-15" value="&lt;span&gt;Lorem ipsum dolor sit amet, consectetur adipiscing elit, sed do eiusmod tempor incididunt ut labore et dolore magna aliqua. Ut enim ad minim veniam, quis nostrud exercitation ullamco laboris nisi ut aliquip ex ea commodo consequat. Duis aute irure dolor in reprehenderit in voluptate velit esse cillum dolore eu fugiat nulla pariatur. Excepteur sint occaecat cupidatat non proident, sunt in culpa qui officia deserunt mollit anim id est laborum.&lt;/span&gt;&lt;br&gt;" style="text;html=1;align=left;verticalAlign=top;spacingTop=-4;fontSize=14;labelBackgroundColor=none;whiteSpace=wrap;" parent="1" vertex="1">
          <mxGeometry x="1219.5" y="303.5" width="450" height="117" as="geometry" />
        </mxCell>
        <mxCell id="7OVz4w7n9kzEPWy-4BBC-16" value="&lt;span&gt;Lorem ipsum dolor sit amet, consectetur adipiscing elit, sed do eiusmod tempor incididunt ut labore et dolore magna aliqua. Ut enim ad minim veniam, quis nostrud exercitation ullamco laboris nisi ut aliquip ex ea commodo consequat. Duis aute irure dolor in reprehenderit in voluptate velit esse cillum dolore eu fugiat nulla pariatur. Excepteur sint occaecat cupidatat non proident, sunt in culpa qui officia deserunt mollit anim id est laborum.&lt;/span&gt;&lt;br&gt;" style="text;html=1;align=left;verticalAlign=top;spacingTop=-4;fontSize=14;labelBackgroundColor=none;whiteSpace=wrap;" parent="1" vertex="1">
          <mxGeometry x="1219.5" y="419.5" width="450" height="121" as="geometry" />
        </mxCell>
        <mxCell id="7OVz4w7n9kzEPWy-4BBC-17" value="&lt;span&gt;Lorem ipsum dolor sit amet, consectetur adipiscing elit, sed do eiusmod tempor incididunt ut labore et dolore magna aliqua. Ut enim ad minim veniam, quis nostrud exercitation ullamco laboris nisi ut aliquip ex ea commodo consequat. Duis aute irure dolor in reprehenderit in voluptate velit esse cillum dolore eu fugiat nulla pariatur. Excepteur sint occaecat cupidatat non proident, sunt in culpa qui officia deserunt mollit anim id est laborum.&lt;/span&gt;&lt;br&gt;" style="text;html=1;align=left;verticalAlign=top;spacingTop=-4;fontSize=14;labelBackgroundColor=none;whiteSpace=wrap;" parent="1" vertex="1">
          <mxGeometry x="1220.5" y="536.5" width="449" height="114" as="geometry" />
        </mxCell>
        <mxCell id="7OVz4w7n9kzEPWy-4BBC-18" value="&lt;span&gt;Lorem ipsum dolor sit amet, consectetur adipiscing elit, sed do eiusmod tempor incididunt ut labore et dolore magna aliqua. Ut enim ad minim veniam, quis nostrud exercitation ullamco laboris nisi ut aliquip ex ea commodo consequat. Duis aute irure dolor in reprehenderit in voluptate velit esse cillum dolore eu fugiat nulla pariatur. Excepteur sint occaecat cupidatat non proident, sunt in culpa qui officia deserunt mollit anim id est laborum.&lt;/span&gt;&lt;br&gt;" style="text;html=1;align=left;verticalAlign=top;spacingTop=-4;fontSize=14;labelBackgroundColor=none;whiteSpace=wrap;" parent="1" vertex="1">
          <mxGeometry x="1220.5" y="652.5" width="450" height="118" as="geometry" />
        </mxCell>
        <mxCell id="7OVz4w7n9kzEPWy-4BBC-19" value="&lt;span&gt;Lorem ipsum dolor sit amet, consectetur adipiscing elit, sed do eiusmod tempor incididunt ut labore et dolore magna aliqua. Ut enim ad minim veniam, quis nostrud exercitation ullamco laboris nisi ut aliquip ex ea commodo consequat. Duis aute irure dolor in reprehenderit in voluptate velit esse cillum dolore eu fugiat nulla pariatur. Excepteur sint occaecat cupidatat non proident, sunt in culpa qui officia deserunt mollit anim id est laborum.&lt;/span&gt;&lt;br&gt;" style="text;html=1;align=left;verticalAlign=top;spacingTop=-4;fontSize=14;labelBackgroundColor=none;whiteSpace=wrap;" parent="1" vertex="1">
          <mxGeometry x="1220.5" y="767.5" width="449" height="113" as="geometry" />
        </mxCell>
        <mxCell id="7OVz4w7n9kzEPWy-4BBC-20" value="&lt;span&gt;Lorem ipsum dolor sit amet, consectetur adipiscing elit, sed do eiusmod tempor incididunt ut labore et dolore magna aliqua. Ut enim ad minim veniam, quis nostrud exercitation ullamco laboris nisi ut aliquip ex ea commodo consequat. Duis aute irure dolor in reprehenderit in voluptate velit esse cillum dolore eu fugiat nulla pariatur. Excepteur sint occaecat cupidatat non proident, sunt in culpa qui officia deserunt mollit anim id est laborum.&lt;/span&gt;&lt;br&gt;" style="text;html=1;align=left;verticalAlign=top;spacingTop=-4;fontSize=14;labelBackgroundColor=none;whiteSpace=wrap;" parent="1" vertex="1">
          <mxGeometry x="1220.5" y="886.5" width="449" height="124" as="geometry" />
        </mxCell>
        <mxCell id="7OVz4w7n9kzEPWy-4BBC-21" value="&lt;span&gt;Lorem ipsum dolor sit amet, consectetur adipiscing elit, sed do eiusmod tempor incididunt ut labore et dolore magna aliqua. Ut enim ad minim veniam, quis nostrud exercitation ullamco laboris nisi ut aliquip ex ea commodo consequat. Duis aute irure dolor in reprehenderit in voluptate velit esse cillum dolore eu fugiat nulla pariatur. Excepteur sint occaecat cupidatat non proident, sunt in culpa qui officia deserunt mollit anim id est laborum.&lt;/span&gt;&lt;br&gt;" style="text;html=1;align=left;verticalAlign=top;spacingTop=-4;fontSize=14;labelBackgroundColor=none;whiteSpace=wrap;" parent="1" vertex="1">
          <mxGeometry x="1220.5" y="1005.5" width="449" height="115" as="geometry" />
        </mxCell>
        <mxCell id="7OVz4w7n9kzEPWy-4BBC-22" value="10" style="rounded=1;whiteSpace=wrap;html=1;fillColor=#007CBD;strokeColor=none;fontColor=#FFFFFF;fontStyle=1;fontSize=22;labelBackgroundColor=none;" parent="1" vertex="1">
          <mxGeometry x="1169" y="1130.5" width="40" height="38" as="geometry" />
        </mxCell>
        <mxCell id="7OVz4w7n9kzEPWy-4BBC-23" value="&lt;span&gt;Lorem ipsum dolor sit amet, consectetur adipiscing elit, sed do eiusmod tempor incididunt ut labore et dolore magna aliqua. Ut enim ad minim veniam, quis nostrud exercitation ullamco laboris nisi ut aliquip ex ea commodo consequat. Duis aute irure dolor in reprehenderit in voluptate velit esse cillum dolore eu fugiat nulla pariatur. Excepteur sint occaecat cupidatat non proident, sunt in culpa qui officia deserunt mollit anim id est laborum.&lt;/span&gt;&lt;br&gt;" style="text;html=1;align=left;verticalAlign=top;spacingTop=-4;fontSize=14;labelBackgroundColor=none;whiteSpace=wrap;" parent="1" vertex="1">
          <mxGeometry x="1221.5" y="1131" width="449" height="115" as="geometry" />
        </mxCell>
      </root>
    </mxGraphModel>
  </diagram>
  <diagram id="1Dp7cWiO_kgsj2p2fkdD" name="Event VS Message">
    <mxGraphModel dx="2290" dy="1291" grid="1" gridSize="10" guides="1" tooltips="1" connect="1" arrows="1" fold="1" page="1" pageScale="1" pageWidth="850" pageHeight="1100" math="0" shadow="0">
      <root>
        <mxCell id="8_aCl2Ah4IlKVrVIe5cA-0" />
        <mxCell id="8_aCl2Ah4IlKVrVIe5cA-1" parent="8_aCl2Ah4IlKVrVIe5cA-0" />
      </root>
    </mxGraphModel>
  </diagram>
  <diagram id="ItzpjVzJFrH0xCP8TXcL" name="EventGrid">
    <mxGraphModel dx="2290" dy="1291" grid="1" gridSize="10" guides="1" tooltips="1" connect="1" arrows="1" fold="1" page="1" pageScale="1" pageWidth="850" pageHeight="1100" math="0" shadow="0">
      <root>
        <mxCell id="gwU3oHrJpf1aLOah3w9X-0" />
        <mxCell id="gwU3oHrJpf1aLOah3w9X-1" parent="gwU3oHrJpf1aLOah3w9X-0" />
        <mxCell id="gwU3oHrJpf1aLOah3w9X-4" value="" style="shape=image;verticalLabelPosition=bottom;labelBackgroundColor=#ffffff;verticalAlign=top;aspect=fixed;imageAspect=0;image=data:image/png,iVBORw0KGgoAAAANSUhEUgAAAggAAAEtCAYAAABtdZh7AAAgAElEQVR4XuydB5iU1dn3/zOzfVnKslRpIooiVhRBsYFYsIElthg1lhhN80s1b5LXmDevMb5JTNRYk5jYYuyCYsECSFFUVJQmKEiHZYFdts/M812/A2cd1i0zuzOzM7PncHHN7DPnOeU+z3Pu/7mrLxQKeaWlpXLFUSDeFOjZs6cCgUC8m3XtOQo4CjgKOAokgQK+YDDoffrpp0noynXR2Siwzz77KDs7u7NN283XUcBRwFEgIyjgAEJGLGNqTsIBhNRcFzcqRwFHAUeBaCjgAEI0VHJ12kQBBxDaRDZ3k6OAo4CjQEpQwAGElFiGzByEAwiZua5uVo4CjgKdgwIOIHSOde6QWTqA0CFkd506CjgKOArEhQIOIMSFjK6RpijgAIJ7LhwFHAUcBdKXAg4gpO/apfzIHUBI+SVyA3QUcBRwFGiWAikJEHbu3KkvvvhC9fX1DQPv16+fSkpK5Pf7k76cjANX0O3btysvL0/77befunTpkvRxpFuHDiCk24q58ToKOAo4CnxJgZQECICD1157TQMHDmwY6bBhwzRo0KC4A4RgMKgNGzaoe/fuKioq+sqzUVVVpX//+98aMGCACPyzdetWjRw5Uv3793fPUSsUcADBPSKOAo4CjgLpS4GUBAirVq3SO++8o6997Wt7UDYUCsnn8+0BEiKveZ4nGH44HFZWVlZDFD/qIHmI/M1KIsrLyzVr1iwdeuihhulznT5smTNnjioqKnTqqac2ucr0Rbv0Hdkn1ym2H37nmm3fjtt+cq+tQ3uMgSBDfDY3r8jrRCzkf+TYO/qxdACho1fA9e8o4CjgKNB2CqQVQNi4caMR8++///4NM/7kk0/Up08f9ejRQ5s2bTLSAFQC+fn5RhXA50cffWTUE9yPRABJwb777qucnBwtWLBAS5cu1eDBg821vfbaaw8AAngARJxyyilfiQpYV1dnVCFlZWWG+efm5mro0KHq1q2b1qxZYxi2lTTQ77p164wkgjF99tlnBligTmHsQ4YMMXNbu3atuQbzHzFihBnr+vXrtXnz5j3mRV/Mlfq0U1xcLKQsqRS50AGEtr+Y7k5HAUcBR4GOpkDKAoS33npL48ePN/SB0cJ0d+zYoaefflpXXXWVYYTV1dV65JFHdP7556umpkbvv/++YcCFhYXGZgC1wejRo/Xwww83MGFAweLFiw0zBWgAHj7++GPD2GFogI1IO4ctW7ZoxowZ6t27tw4++GADNOwpfdGiRQYgcC/jgVlXVlbqpJNO0rvvvmsAwxFHHGHmgGri7bff1pgxYwwznzp1qmH4jIO2uUY/2DYAUgAfXIf5L1y40FyLnBdjf/PNN43aBYBBPVQy9JkqxQGEVFkJNw5HAUcBR4HYKZCyAOHVV181EgAKTI/vMPxHH31UY8eONcx8+fLlWrlypU4++WTDRGGqMGAYPGCCNs466yw9/vjjOuSQQwyD52ROXU70tAOwgNEedthhzdoVABIAFUggONXDnAEEjOX444839wEaYNLPPfecDj/8cHPqbw0gAAoYA+NdsWKFPvzwQ51xxhkNTB71A2Ol0GbkvLhv9uzZBkQBJFKxOICQiqvixuQo4CjgKBAdBVIWIHDaPuecc8wsrN2BZaSc3M8++2y99NJLhrFzqocxAxbwMqAABGCcp59+up5//nnzCUOmoJbgRH/00Uertra2VYDAPTBrAAKn/FGjRumAAw7Q3XffrW9/+9t7ZCxEJVFQUGDabQkgAF448Vt1yeuvv26kB0g8bEHCwLxQR1jJgJ3XpEmTtHr1ajP2gw46yAAj+k2l4gBCKq2GG4ujgKOAo0BsFEhZgNCUkSJTg/E+++yzBhig5+ckjdoAlQReBngYNDbUe+ihh8zJHFF8WwGCJSsnemwdMFoEIFx22WV7MOaXX37ZqDkwbKTAuCnYEAB6jjnmmAZ1AgBh+PDh5nekATD/Y489tmH8SCSYV9++fU29pgwQUbPMnTvXgBekJU15YsT2SMSvtgMI8aOla8lRwFHAUSDZFEhZgDB//nydeeaZDfTAyh8ggDEg+n1E8pziUR3AOJEKYANw3HHHGYaNCoETOGqJlgACaglO4Zzk0ec39gTAABF1AoaFtIdRI3Vg9EgmsA0AlDC+0tJSI2EAPPB92bJlmjhxohn3kiVLjL0Dv1l7g0iAANiZOXOmTjvtNANkGBeAgXkCLqyEwM6L8QAg+ASMvPHGGzryyCPNeFKlOICQKivhxuEo4CjgKBA7BVISIMDoYXgER7IFPT9eBjBivAFwP0RFYGMl4Gnw3nvvGaaKmgEgwT0YEGLYOGHCBGPoSMF2AY8BVAXUw7gROwPsC/AmiDRSRGIAswckWJdGRPqMDS8CmD798TvMm+sHHnig+Q7Dt+ACyQeMHJsFQAuSATs+xgSzB3wwLhuECQBkPS0AQZHzog0ACKoP5szv2CmkkprBAYTYX0h3h6OAo4CjQKpQICUBAoaDMGyYny0wTU7WnN45XQMIunbtahgoBSaJBwG2BTBbmCm2CejuOYFzagdcUOwpnPsp3Ed/AAj6iBTlw9SRItAnzB7GzH2ACAAD49i2bZvpH/F+pJcD99Iuv3Ef7VKHdgACjA0JgB0/fVAftQHzAmxQF7dHxhA5L9oCuDB26tIvXg6pVBxASKXVcGNxFHAUcBSIjQIpCRBim4KrnaoUcAAhVVfGjctRwFHAUaB1CjiA0DqNXI02UsABhDYSzt3mKOAo4CiQAhRwACEFFiFTh+AAQqaurJuXo4CjQGeggAMInWGVO2iODiB0EOFdt44CjgKOAnGgQJMAAQ+CefPmxaF510RnoQBxKXDRjCwOIHSW1XfzdBRwFMhECjQJEAhN/MILL+wxX7IdRutCh/cBngJ4IxDd0GY2zEQCujntosCJJ56oK664wgEE90A4CjgKOApkCAWiBgiXX355VFO2rn8ABNz7kEbgnudKZlPAAYTMXl83O0cBR4HOR4GoAcK3rr22Wer4dv9iYhFUValyd7piTzKSiGB9feejbCebsQMInWzB3XQdBRwFMp4CUQOEn/7iJn1SUaCKUGAPovTICeu4vbuopFsXhcIhkytBnlRTW2tSId95x19MkKF0KAQfQo1C8KHIQnAjm1shHebREWN0AKEjqJ4+fdpIopHBz9Jn9G6kjgKdiwIEGoTvRQ0Q/t/Pb9a/NxRrQ22urMQAJDC0S1i/mNBH+w3sswcFSbf81pw5uu33v08IQCCi4rhx40x4ZSINtrUQgpkIhCRgIl8C+Qxee+21PZoj0dO0adO+0gVppsnPQB4FwkNjc9FZiwMInXXlo5s37yjvGO+LK44CjgKpTQHAAUkCowYIN/z8Zj26vqfW1+SqASF4noYVhXTTxH7af3DfPUIUE0p41qzZ+v3vb00IQCDHAgCBnAyff/659ttvPxNymFDLnPb5T0hkbCL4RP2BJKNXr17GcNJKNS688EKTUpk8BuRWwBqf3A2EOYZItE2dF1980YRLXrVqlbGp4PeDDz7Y2FiQoplQ0AAL6kBYkiwhjeA/pybGQLhkwj4TzpkcEoAKQjUPHjzY0I570rU4gJCuK5eccTuAkBw6u14cBeJBgZgBAhKExzcUa2PtrtwHFJhu/7w6/eLE3ho5dM8sgjvKyzVnzlz9323xlyDATPGqILcCwODRRx81uQhIosQJhXHZ1MoAAZj3p59+ahI2wYRh2KRXpmB8SS4FruHaecIJJ5hPJAkABtsXGSQBIGx0ixYtMvd+/etf14cffmgkEIAGgAeuflwDKODmR0Kl1atXGxAAcOC3SZMmadasWSb5FMac/AdA0B+Jo9KxOICQjquWvDE7gJA8WrueHAXaS4GYAcKP/+vXmruti7bVZ8mHjsGTymuDyqqv1OH9cpWdXxQhWZAC4Tp1qVyrf9wTfxsEmCnplmHKpGkGINhESzBZrpEtkcyJbExcY8Jkb1y/fr35++OPPzZAAukAaZtJE/3ZZ58ZkAFDR0WC6uDYY4/VsGHDdN9995lPQIIFCHwfO3asycr4zjvvGMkAagZAwVFHHWXG8cADD5jfyRI5fPhw0zZjog7ZGgE4NukSn6StTsfiAEI6rlryxuwAQvJo7XpyFGgvBWIGCEgQntqIBCHb9F1eE9K6HbXqlVWjAn9In1blgxkaSp+cel0xcLOmP3Rn3FUMvXv3NmmcYdSoDGCyfCLCX7x4sY444gjDiPv06WNSQ5MhEcNDmDl/b9y40Yj6Keecc475G6MMbBBQG5DCeeTIkeYepAtcW7p0qZFEcD9qBr4DJvhESoEEAgnCIYccYu5BKoDUANsFgAEgAaIDTJB+WNDCxglQAVgg3UhXY0gHENr7Smb2/Q4gZPb6utllFgViBgiRNgjlNUGt2VGn2npPg/JrVRgIaUklaYt3my96Ur/cWn17yCa9/NAdcQcIpEDm9G69DQAHMHgkCuj0EfnDdGHaMF7UDvynHtetWJ8l7dmzp2kLK2ukBjB8mDTXUS9gS8E1W/iNthgDag36YPMjbTN1kSKQCpp6tEubpHVG5UBd6gAWqI/KAZUCY6fwW7oacTmAkFkbRLxn4wBCvCnq2nMUSBwF2gQQHl7XUysqsrVmW62q68NmdAN3A4SlOyMAgqS+uXW6bsjGhACExJEl8S3jfXHmmWca48mFCxcaNUYmFAcQMmEVEzcHBxASR1vXsqNAvCkQM0D4fz/9uZZU5GvV9npV1QYb1Alds0LK8XvaWpe1h4qhMBDWoUUVeuqh++MuQYg3MVx77aeAAwjtp2Emt+AAQmyri6QTjyzUpkgkKXwOGjTIGGfHu9Af/21fke1bySeS0EhpKtdR1RYXFxspaTwLdmWTJ08280eti/1YIuYdzzFnUlsxA4Sjjz7aiNVjCXqEuJxTsguOkkmPTtNzcQAh89e4PTN0ACE26rFnzp0713hfoYqkwCAxprYqydhabLk2NlEU3LcbF9S0GGGjosWw2hZUtbh/Y8iNvVc8y+23366rrrrKABCMxzE4h/+4khwKxAwQkjMs10u6UsABhHRdueSM2wGE2OgMQMC1mhM9LteJLm+++aaJ2UJMFwcQEk3t1G+/RYBADAH89V1xFIiWApwsOElEFpfuOVrqZX49BxBiW+PmAAKG2cuXLzceUoj2KagiCLqGGzaifly8iVqJkTQB4FBLcB9SAFzEOZEj3R0zZoyJ1YKhNHFhsI8aMGCAcdGOlCREK0HAG4w+MNBG2sGpH+kH7ttIKJA+IxHB+Jv94sADDzR9Yo+FBxku3vyGd9hLL730FQkCbeKRBnDCGB0mxsEEYMMc+Js2MFY/++yzzXdoRft4khEEz5XoKNAiQIiuCVfLUaBlCjiA4J4QSwEHEGJ7FpoDCDC/119/XXvttZdGjBhhGsV1GsYJQ37mmWdMlFaYPLlw5s+fb5gl6oC7777bBGnDhRtX7IceekjXXnutYbCtSRA4NFIPEGJLdXW1Zs6cqfHjxxsVA+7fMHz6x2UbF+8f/OAHZhyvvPKKCQyHioSxAkhQWwNEYOKM89xzzzWg5uWXX9YHH3xg7o1UMeBphkqDuQGQCGgHMDr//PNNXwClKVOmGBUMfeJ2Th8wO2wZLKCKbSU6Z20HEDrnuid11g4gJJXcKd2ZAwixLQ8AAUkANly4SFOI/wKDBxDAOAkWB0MmKitMGQNCGCUMk4LR4fTp0w0DR7LwxBNP6KKLLjIMk/Kf//yngdm2BhAIKQ/DbWykyEn+4osvNgCBkzpSAhg5Eop7771XN9xwg5EgADCIMmvjxmBfAcgBNBBM7qSTTjLB5Cjce+utt34FICBlYAxIDez8ADnf/OY3DcCxAfSgCYHokJQQEweX9aaML2Nbkc5Vu0WAALpk4V1xFIiWArz4vIiRxQGEaKmX+fUcQIhtjVuyQSC2CnlfCAuP4R4ShYkTJ5oTPIyXIHK2cHJGlUBsmKlTp5rw8JZZvvDCCybIHEy6NYAQjZEip3Y8DixIIJHed77zHSOtINAcKkjivzA3cugAeIg2e8sttxggEWl8+ac//UlXX331HhIEgBCRcAEWttA2IfQBU0g3UCWgpuB5Q+2AaoV+uB4JbmJbjc5Xu0WAMGPGDLOA0ZXdcZejq+xqZSgFcEMi66UDCBm6wO2clgMIsRGwJYCAZABQAOND5cCJHRCAfh/9PFKGyIJqAPojXbj00ksbfkJcDziIF0BAIoH6gkBw9PnHP/5R119/vQEIqBGQeFiAAJDBKwKAcNttt+maa64x4fIpzP33v/+9vvvd7+4BEAApqEoiDSkBA4AfJCXYNQCOuEYBqGD7QHRdpApk33UlOgrE7MWAiIoFBb3uCgfskwYfKF/PgfI+fVuqKDM9g+5YGMRKPMiudA4KOC+GzrHObZ2lAwixUa41LwYYHydq7ADQ3bOhwzz/9a9/6ayzzjJMmkJ0VkTv7NstAQRsADBGRCrRuERrpPj3v//dqDessSD2EN///vdbBQjkwkGNgoQB5g7IgeEjVYi0QeA7Ng+nn356A5iAzxDRlrlhk2GlJwAnCoaN2CY89dRTBoS4Eh0FYgIIGHcgouGhxCgkWFgs/5FnyT/kIAMUwjs2KbxgmrR6kQoL8huyFJIqOV1DB0dHRlfLUsABBPcstEQBBxBiez5sxlmM+WwQIpgdwYMsEwQMcOrGCNEWxPyPPfaYOaix9xL6HYbamgQB5kt7iOmt54NtM1qAgHEhen9O9HgvcHK/8sorWwUIjO3xxx833XGoJJ8NEuzGcRD4HcNEPOw4rML4yWuDZKIxQMCDgTagD2oJ7B+QVrgSHQViAghYjULwndW18g09TP4jz5TPZG/cnXuBPsOewp8vVPjt55RdX2keNBYG5OpK5lPAAYTMX+P2zNABhNioB6NEddA4MB0iehswCMaNPQGW/5GF60gOuA6DtK6EXEf0H8n4+c22h2SYOoCKyKiFjIVx0FdksCKbZI5+aMdGXKR9JAJIN+gP40VO9AAdJARNtQeYwV6COkg8kIY0dS9t8Szxnz7sfBg3Y7bjph40oB0OuJHzjm0lOmftmAACCG3e/Pnydesl9dtX3qCR8vUZKl/W7gczHJZXUSqtW6bCTctUu/FzDd6rvxEPsUiJKoiWaN+KkxLVj2u3dQo4gNA6jTpzDQcQOvPqu7mnGwViBgjzF7ynoiMmKKfvYFUsW6iacEC+fUfL37VE4c/eV+H2NTpg+DANHLa/5jzziLr6wwkFCKDcU045RRhUoodypWMp4ABCx9I/1Xt3ACHVV8iNz1HgSwrEDhDefV89jj9H3UafrODO7dq55F3t+GiO5PNr6LBhGnXiyeozaIhCwaCe/tNvVBiuTShAwCCFIBtID9A14etLxDB0cACGjz76yOinEI1xncAduN0heuI7Fr8UAmugy0KchygKMRruOQTYQNeF6Ovggw9uMLxElEUfSFUI5oH1MK493IuIjSAgiNvQEzIG2w8qF1yKEPnh24w+jGhniNQQ0SFWw1cY4MN9gB8b5AQpCWOmD1yBsAhmDKlUHEBIpdVIvbE4gJB6a+JG5CjQHAXaDBC6jz2toc3aDauUvWCqzv7ujcrZnc2ramdFwgECeibc6igEwrjrrruMjytMF70XuilcYmDiMG0YMUwbX2HiO6D6wEoWXdgVV1yh5557zkQho13sLR588EEDKjC6wcCHsJ8wZtxk8DWG6WP0gqsOrjWLFi0ygUpg8AQMOeecc4xBJyoQgoCgNySs6OrVq411sQUQGCDRD/YdAATGR9sAgwsvvND0zxyIQoaFLwAHf2UAQqoVBxBSbUVSazwOIKTWerjROAq0RIE2AIT31OP4cxUJEOq2rFP2289q8ndvVNbuTFvJAAgwYU74nPz33ntvAwYACDB4Im3BVHEBgtlj+AKzhkkTqYsIW5zI8c2lwIjxB0baQF0CaxBT3Mbt5tRO+zB1YoRj9IInByd8Ao3AtGHqjAOJAxICQAvRzjDQRJpB39wLUMG6GCkE0g+AAD7IWP4yfjsGJBNYJuP+g9sRlrtIH4gkRh3GCDhJpeIAQiqtRuqNxQGE1FsTNyJHgbhJEOa9s0Bdj5yo4uOmyJ+bZ9oFIOS8/ZzO/u7PGgBC6fq1ev7O36lHbiBhKgbE8AQJgdkjoh87dqzxvV2zZo0R98OgkRLAmAEHFhBwQodJ413B7xRABCd/GDBgwG5kMHxABKoHTvkwddQH1nKWpCbYPzAOTvQAFqQXgAKkAVj7ogYAbFBQOQBsaBcVA2oFVAlIFrCwZayACgAHlr5ILJBM4OOMhAHpA+5D/LcJW1Lp8XYAIZVWI/XG4gBC6q2JG5GjQFwAAnr2RYs+Vm0gR4X7j1LXw8crp/cA1ZeuNwBh8vduVH1dnZYtmKMl82Zq08ql2nvwoAbm3BHLgDShsXcDjJfrzcVmgGlbtyLqoZ5ADYFdAvfyN8W69DSeF2AFQEFd6kT2D6AAaKB2AFggibAlsl/6ok/+I43AJ5gwothOUGwfHUHTlvp0ACHVViS1xuMAQmqthxuNo0BLFIhJxUBQChgcJ+iNW0rlK+qpokPGqWDvA5X93gsadcrZWvjqVK1b9on8XkhDBg82TJhTb2M/3s66LEgEbKzxaF0/AQvcEwkmUpV+DiCk6sqkxrgcQEiNdXCjcBSIhgIxAQQa5JSLgR0idKu/9+UVyBcK7jpd19WafhGlsxkAJlyo5WiWIjPqOICQGeuYqFk4gJAoyrp2HQXiT4GYAUL8h+BazCQKOICQSasZ/7m0BhCQNv7yl7+Mf8euRUcBR4GvUAC7t3vuuadZysQxm6OjvqOAjNupy+bonoTmKOAAgns2HAVShwLtAgioEIgX4IqjQLQUwE2zZ8+ee1THIyMydnu0bbl6mUcBBxAyb03djNKXAu0CCOk7bTfyVKKAAwiptBodOxYHEDqW/q53R4FICjiA4J6HDqeAAwgdvgQpMwAHEFJmKdxAHAVM7J022yAQOIiogK44CkRLAUJOEw46sjiAEC31Mr+eAwiZv8ZuhulDgXYBhMcff9yEEW6p5OaENbBPUBu2ZKmyxp8+lHEjTQgFnBdDQsiaMY06gJAxS+kmkgEUSChA6FoY0iUnl4vYfpXVfj0/u4vKKwMZQDY3hbZSwAGEtlKuc9znAELnWOdMnmXA76lnt6Cysr6cZTAklW4PKBxOr0NywgBCl/yQrjp7uyaOrtItDxbr0knlmv9xvh6f0VVVTpKQye9Hi3NzAKHTLn1UE3cAISoyuUopTIExB1bqqsll6l64K+S+fNLS1bn6/UO9VF4ZgRpSeA52aAkBCD55Ond8ha6/wK+8/G4mgqLnhVRXU6rfPpCrVxcUyvN8SSMPLnTkO0hExEaSJ5GPoaKiIqr5NJefgXDJ5FGwn1E1loaVHEBIw0VL4pAdQEgisV1XcacAB+MfXliqU4+sUMAveZK27QzoD4+XaMa7XZLK9+IxucQABJ+nycfv1HUXF6tLt0G7IJRXr53bluv2h+s0fV4XhcPJAQhkTDzzzDP16quvmsyMTBgmTA4IQAOJlWDwgAfriw+jJmQ02RAtqOA3wAD5Drhm7yP3BMmSSMXMb9yLrz+5JUjIRH+AAn7jfrJBkqaZPrlOfdrblehqkckC+fnnn5u6JFwiHwP1yLVAXTJBct2OzyZnisfDkIw2HEBIBpXTtw8HENJ37TrjyAEAu4UE4mB89Igq/fC8rRpQUm/AQXWdX0/O7qoHX+mhimo/nDCtSkIAAhQo7hrUZWd5mnyilJ3lqbJKev7NkB6Znq2ycuwQkkMqrOaHDBli8j6Q7ZDvpFPmb5jtqlWrTF4IwAJpnMkN0bdvXwMA+E4qZsqRRx5pAAPBoWDQXCcFM+mdBw4caNJDE3YSoIBVPp+ACtoEjNAe/fJ9/vz5BhDA/LmHVNNf//rX9eijjxrwwrioi+SF9hkb2R0BHszhoIMOMuMn7Cx106k4gJBOq5X8sTqAkHyaux7bRgEAQLCgp+q79lf+pk/UPb9e3zp1myaPrVCWXwp70ltL8vWnqX20wneQfMEa5W5dkSTO17Y5Nb4rYQCBjnp2DeqXV5Zq9PBqzVtcoFsf6qnN25IHDjhln3DCCYa5Dhs2TL/5zW/M9/33398wek7+77zzjo455hhz4ueUz+fo0aONtIGEU3PnzjUn/ClTpmjt2rXauHGj9tprLy1YsECnn366Pv30U/Xo0UMfffSRLrnkEr300ks67LDDzH18vvvuu4bJ0yeSAFI5P/nkk7roootMXfrCVZT2n376ae29996m3rp16wzoOO2007RmzRrTBr/hWgq4ANgsWbIk7bJgOoAQnxc3U1txACFTVzaz5mXBwY4Dz1ZN7wPV583f6ag+X+imC0rVt3vQTHZtWZZ+9Vgvfbipl7aOulz13Qaox/v/MmAiOcfj9tM8oQCB4f3wolKdO6Zcry0u0i3/LFZVTfK8GJAEwJgR6cOsAQWc0LEXQDowYcIETZ06VZMmTTKMn5M8oAKJAIyYkztqAgqEAmSgsgBYvPLKK/rGN76hefPmmZP9e++9p6uvvlr333+/6RMVAfX/85//mPtRLaAOGDlypAECgAmAwnHHHaeFCxcagPDUU0+ZekgVGDNjPOeccwwIYeNEnbF8+XIjyUB6wXithKP9j0JyWnAAITl0TtdeHEBI15XrXOMO5hRq22GXqHLwOHVb/Ly6L35Gv5q8SacfXmlUDXUhn37+WC+9tTRfYV9AtT331eZjfyD5fOo5/x4VrP8gLUBCUgDCeWN2aNanRbr5gZKkxkJAn4/EYMWKFQYYjB8/3vwNUFi6dKkOP/xwcwIvKyszzJa8Enw/++yzjUpg8eLFRlVA4V7awE4AET9qBgAEjJy/AQkwcqQQgAAYeWlpqU499VTz+fHHHxv1Qr9+/YzE4PLLL9fWrVsNCAAgIMWgf65RH8kHdgrvv3VTGWcAACAASURBVP++uQ+gwnwYO+Omb35Lt1wYDiB0ro001tk6gBArxVz9ZFMg7M/StkMvUsW+J6vr0hfV/ZNntHf3Cv3rWxuUlyWFPOmfs7vq3je67TG0mp77atOJN8pfX6WSeXcrb/MSAyZSuSQcIFx9VpkunbBdr3zYVX94pFjVtenlB5qoxTvllFP08ssvJ6r5lG3XAYSUXZqUGJgDCCmxDG4QzVAgVNBD2/c/UxXDJqjo0xnqvvg55QW36+YpWzV+/2rD7leXZun+md20peJLl8b6kPTp5hxVFB+g0qOuka++WsWL/qO8DR/L5+12h0xBqiccIAzpV6cLJ5brxXld9NGnuUkzTkxBWu8xpN69exs7h85WHEDobCse23wdQIiNXq52cilQftQ3VLbvmeq2eYGKZt2nrJptOnpojW792lbl+D0DEGrqfKqu+9LKoDbk01uf5uuemd1UURtQzaBR2jbmamXVV6jnS79RoHpHcicRQ28JBwiMBd/QndVIDtLFNCMGCrqqMVHAAYSYyNXpKjuA0OmWPK0mXHPgScq+8AYVBz/TzvtvU3j9al06pkLHDKsxQQ/8Pk97dQ+quCBsuF1d2Kc3P83XA7O7anVZluQPKP+ESQqfcoXKP/hE2c/cJn9NdDF0OoJQSQEIHTEx12dqUsABhNRcl1QZlQMIqbISbhxNUcALZCtv7Ikq/t5PVbNgnsr/eZfytq9TdmCXLcHAHkF974TtOqj/rjgI8z7P0x9e66712wPy5FPeMePV/dofqW75Um1/8E6F1nye0nYI7QIIuNmtXLnSPUmOAlFTADfPgw8+eI/6Lptj1OTL+IrxAgjEIMHIl4JBL4a+iS4YMRNnhb5wTY5XYR42iBtt2iBv0baPh9QzzzwTbXVXLwoK5E84Xd2vuUE182drx4N3KbytVAECBB5cqeuPK1dBtqfFG7N149RibcIWwe9X3tgTVPz//lv1n6/Utjv+V8HVK6LoqWOrtAsgdOzQXe+ZQgEHEDJlJds/j3gABKKOXnDBBerVq5fxPCJGCTFHEl1g5KQyx5MJN+l4lJ49exoPJ4K5WZDwxhtvmPgq0Zb77rtP11xzTbTVXb1oKJCTq8LTz1PRlItU8+587Xjgdu2VvV0/Hr9dRw6qNeDgppd6aO2ObJG1Kf+o49Tt2h8ptGmjtt/7B9V/+kk0vXR4HQcQOnwJ3AAcQHDPgKVAPADCEUccYSKfwhhtSHSkCBTinBDYjFgi9EW0UgAFwdCIcUJwNOpE5laBSeN+DNjgXgKZ4Z7MPTYEOm7OlEMOOWQPgEB9gAPuyXYMhYWFJpYK12wkVIyWKfTDmCnEUiEYG3Vee+01EyyN8dK/bYt+bVsAE1vY2ImnQrTWO+64owEgNDUH9/S1jQK+gkIVTDhdBcefom23/0Zn9fhY148r10cbcnT3nK5aviXHNOwr7KJul16rQElf7XjonrSQHEQ+R/fcc0+zBOIZI96QLxgMevj5u+IoEG8KOIAQb4qmb3vxAAgEKjv33HP1l7/85SuMnngmBCyDIRPsjOioRDPdd999TawRGPFJJ52kxx57zDBqVAZjx441wc04ySOVgEnTBkHQACIEMIOZk0MFwGAlCMRAoT7MnNgmhEmHmRP8jEipeDERYG3y5MkGfHAfcVVs8DMithJJlX6ainfCeIYPH25it9Au7aPyZTzEciG2C2NFxUAod2K32DnwhABwbCC39H1iOnbkvvwCBfr0V9bGz3X32RtUWe/XX+d01dLN2QrbhIQ+n7L6DZAXCim0aX3HDjjG3tslQZg2bZpef/31GLt01TszBdhszz///D1I4ABCZ34i9px7PAACJ2wAAgHLHn/8cRPwDAZ8/PHHGwY+a9YsIwm4/vrr9etf/9pENV2/fr3mzJljAqfBTEnuRjjza6+91oRV5xSP7cyMGTMMkLj00kvN98GDBxsmDaDgOoABRo8kACb9wAMPmBP/WWedZRg4DBpwQARWQAb2BA8++KC+/e1vm7/p39pLAFrGjRunf/zjH195QLDl4T3629/+ZuoTtXXEiBF6/vnn9dOf/tTkdQH8AHB+/OMf67LLLjO/NzUHgrq50j4KXHRohU45oEa3vd5NSyLBQfua7fC72wUQePleeOGFPSaB5WYokK+63O4tuzV6nnLqtisrlF7Jhjp8xdJ8AM6LIc0XMMHDjwdAMGJdn88wRBj59OnTTYK073znOw3RS6lz4YUX6rrrrhNBy4isSrRT7uMZBUi8+eabuummmwzDJbIpzJropRRCon/yyScNmV2pCwixNggAh/79+5voqpSjjjrKSCEAAQAQGDunfaQLt956q5EcME5UHDaDLInmANR///vfv0J1pBO0hRSEwkZ+1VVXGWPEG2+80czLFmuDwLyamoNtI8FLm7HN9ywI6b7zt+i/X+qhjzcR6ydzSgIAgk+lvUfri2HnKytYJZ+ajhJVn12kAZ89qz4b3socarqZtEoBBxBaJVGnrhAvgGCJiH70hhtu0K9+9SsjMYApc7KmoEKAgfNM8rls2TJzHRUFJ22YN7YIqB2oQ0j12bNnN9yLpwJhz9HzYzSIpMACBIwK0c+iQrCFPlAV8NvJJ59s1A5IYZEaAEAOPfRQw/ABKhRUDEgeOIihRogsAATADKCCQl9XXHGFXnzxRX3ve98z/ymoFe68805jg4B6pak5IO1wpe0UGLVXjVEnLFyfWeAAiiQEIJSVHKot/Y5R/7K5KgzsVHWVT6FdNkKm4A+6dujZ6rPuTfXaFB9r37Yvr7szmRRwACGZ1E6/vuIBEBC/U2DcZEA988wzdcsttximzIZHiHMkBKgZAAskbYsECDBbGDAJ3v785z+brKqoKzjNw9BpF9E9YAO1RVMAASCArQEqBuaELQLt8AlDZlzYPsDQGQv2Ahgkch+qCwrXuQaTRyWBYSRGiQAX5vG1r33NJHwj0dyoUaNMnhfaI2vtP//5T5ODBqADMEKS0twcACiutJ0C5FOAp2ViSQBAkJAOBHO6asxhG3TksUG99rT0xQqfPE/ywrvSU1QWDVZO7Xbl1CU+zCQvZaQVcVsWEsOfPn36mJebk4O1NI6lLayk0U/yguOyxEYUeTJgQyAhEy98phYHEDJ1ZeMzr3gABPTxMG68B5AAIL7HDoFEbUcffbR5x3gHsS1YvXq1YZwwaP7bAsPlfUd6gG0BRohICzj9c3LHjmDmzJlCDYBHBAaKqBiwR4Dh8jfSBPYN6tMPUgbUHmRipS5xZJAWICUABLA3YAdhJRyMBQ8KOxY2a/Yxxo19BACG/pFcoJrgOnNgDIAPxk1bSCbuuuuuZudgPSLis4KulUyiQNwBQiRxhgz3tN/BnpZ9IB1ytKeNa3xa+JZP9RFxqhNNTDYDjHnQzSHSa2uhjXfeececBmDqVk/YUnuIKkH9VoSH+xWnDl5yXnzQPT7NthQXFxtjI/rJ1OIAQqaubHzmFQ+AAMPElZBPmDWM176vMGLr1khf6PEBEnzy3xauwdgjAyxxjQ0T5o7RIgyYa7RtDwyRf1OPEz/t4KJIfVwoARvcYw8L1OE+xkq7jfcWDhOMmTqMhzr0R7vcyzxp27pMMgeu23Fyn/2tqTnEZ+VcK5lIgYQChP0PDRtgsOBNn0aM8rR5nU/Z2VJJP2naw6gdEi+W4XTASQCUDDpH3IhuD8tdRH4YGqGX4+VE7AfSR0TJi8RviOkoF110kZ566inz8oLOCYRCPdrGZYoXF/0k1tNsBugzsWjm5cbIiBd0zJgxBvkDMDjN8DcnG/rkZMOJgmvUpT0Mq3BRog4poSM3sHR9GB1ASNeVS8644wEQkjNS14ujQOZTIKEAYeTosA4bJ817WerVX9pWKvXZS+o72NMzD/hVV5tYgMBpASYNY0U8SMAHJszJno0IJo1uD9cjAIQNUoJIDrcnUDliOwoGQIjrEB1ioYzYcuLEiaYeSB79H7pDLKLnzp1r9JucYgAYVnQJ80dyABjhFGF9pwEAZ5xxhrkPCQJuWAANAA0ugACV9kg/UukxdgAhlVYj9cbiAELqrYkbUeelQEIBwrCDwjpwlLRwjjT8EGnLemnx+z6FQ1KwPrHggCXlZA9AQFKALpAAJDBt9JLYEWCIhNUwukIYvQ0sAuMHAKAe4MRPwVeamA9IBxATYhHMPQAL1BgYKsHocSPitI+6AOKy4Vl3KAACkgskCNhFYPQECMHFCkDwxBNPGH0ols+0P3XqVKM/RAoBWEhGPPlEvwoOICSawundvgMI6b1+bvSZRYG4AwQMEOtzupk4CEfsv1aHj6nT7Ol+lW7ArUiqM1kxfarsMtAYKObUlSeMohgBwrwBA0gTMOgh4hgMGjCASoGCLhAGz+aEwZF1cUL0j/EPBUaNTo96AA2YPT7R6AYxXOI6/aB2wMgQ6QDggWAnMHy+o9qgb1QIEB6pA/pDxgjoIGY80gmrOwSA2EhpjMWpGBL2qLiGU4QCDiCkyEJ04mEQvwJDUgr7bnsCSbGX0xZ7vlVXpxNpEwAQfCrrNUpb+o7RoPXTVeBtN6qEcISbo3w+rdz/G+q1YY56b5qfUHoh/rdGPzBj/lNg2PxmDX+o07geJ/bG12DS3Es71jCJEz71uM4DQR3bL4zfuhFFjoUxUJfC/dxLe3aMVlpgf8sEcMBcnQQhoY972jfuAELaL2HaTwA18aRJk4zkl0MbtmCxFg56hMm+9957zQHSepTE2k5H108IQNjaa5S+2Pd8ybeLGTdV/OE69f98qnpvnNfRNHD9J5ECDiAkkdhp2JUDCGm4aBk2ZGJPIF1+5JFHjDqaqJkwfMJvE1OC2BiohDlcYqROXA2kDMcdd5yRPqMyRsKM3RvxKJBCIznGfg2XVtTLqKEXLVpkQmDzHUkxLrUcElF9I3FA5cz70JElAQBBqsvtoZ1FgzkjNzs3nxdWQeU65dVs6cj5u76TTAEHEJJM8DTrzgGENFuwDBwuAIHTPwbqeKYNHDjQZOlEGkBejIsvvtjk8MBoHakw6uRnn31WP/zhD/Wvf/3L2K6hVsBj7re//a1J/oW6GON4JMqE5UZCwSdRPgmFjfoZiTISZNThGKx/+OGHRvLQkSXuAKEjJ+P6Tn0KOICQ+mvUkSN0AKEjqe/6hgIABCQBMH0CYhGQihg2999/v2Hm5PAgPwcnfqQIBOUCTGAQT14NCsGtyLlBPQAFAAFQ8Nxzz5mAWd/61rdMkKwrr7zSRMTEkw47NzzY6AtbuX//+997BO/qiNVpF0DARdAmL+mIwbs+048CIGvizkcWl80x/dYxUSN2ACFRlHXtRksBAAIneuLXYBuGZxmqBewRUBEgXfjJT35iVA5IBAAIZOT8+c9/bk79qBhwS7/tttt0++23m7DcAASYLWoIbBtwsUc18bOf/cwADgsQUEMQ5AowgfTBJvuKduzxrtcugIC+pC0hh+M9Cdde+lAAMRqo2wGE9FmzZI7UAYRkUtv11RQF8H7DONyGwec7TB6wgDE6ru/YEWCfYKNZolbgGjYJSB1sHhD4I/k1bARMPNcAB7TBs87feL/BiG20TFzyN2/ebEBFRxuntwsguMfLUSAeFHAShHhQMTPacAAhM9bRzSIzKOAAQmasY1rPwgGEtF6+uA7eAYS4ktM15ijQLgq0GyAgBiEvQUulsf9/u0bsbk5rCiCqw+jHqRjSehkTNngHEBJGWtewo0DMFGg3QCBKIH6hTRWrbwYgoItxaUVjXp+Mu8F5MWTcksZ1Qg4gxJWcrjFHgXZRIGEAAUM0AEJ2dpYxSqutrWuINugMG9u1Zml9swMIab18CR+8AwgJJ7HrwFEgagokBCDg+oFF5phxx+mwCZOUVdhVpcs/0vQnH1dZ2VZj+YkFqCudjwIOIHS+NY9lxg4gxEItV9dRILEUSAhAIBLUqNFHadiUq1QWKFRZTVBFWT71WDFXH775snHvwLUjmYVQmSTeaGsB1JBUibwKJHSi4KKCe0tTqhPSPZMEik+SNzUuRMzC3QVakTiqtUyNZKFE8kI2yXQuDiCk8+olfuwOICSexq4HR4FoKZAQgECjE865QNtHnqwJQ4pVkp+lFz7fpn7VW7Tm9We0bNlSkxExWaVr16669NJL9dRTTxn/UkJjwqAJY4lfK8wZdYg1puQ3/E9tHcYJI4e54Rv7zjvvGLXJ9773Pf3tb38zgAdfWcu8qUtUrZUrV5qIWATOQKpi+6I9wMbo0aNNuE7qMRboRgxu+qU9AAGAhLEBJvgNyQu/cY17AA5cp236sEmfkkXbWPtxACFWinWu+g4gdK71drNNbQokBCDAgCdOPk87DjlNh/frptpQWB9uqdKI0GZ99tqzJjpUMgECoSthoqR7fvHFF80nsbXfeust4WJH3Ou+ffua0z5BMhgbwSoAAUuWLDF/w/THjx9vmPacOXPM/UTYmjZtmom6BQiBeW/dutVk7yJl6MyZM03ITkJyUp+28fggiAZBNYiq9corr5j7iJxFQA3GCXgABNAv0goAA8k8COfJ9YMOOsgE2iguLjZPF2Ml4xhRCgnfiWeJzUKZao+fAwiptiKpNR4HEFJrPdxoOjcFEgIQYKb77DNME6++Qe/Wd1VFXUgHdc9W7uKZ+vDtuSYMZXvE/bEsGSftyZMnGzH+hAkTTPhLmDlMFmZNVq4XXnjBZOvq3bu3GRcggPjZMOcPPvjAMHgYM+55MG9Cbp588smGEQMIkAQghUDlAPh5+umnzbXPPvvMxPUmDCdg4thjjzUZuhgL0opBgwbp6KOPNhIJQnlyL30iBSCRx6ZNm0xYT8bE/QAOwhQ/+eSTZjxIRSgAlBkzZph5vfHGGx2eAayl9XEAIZant/PVbQ0gbNu2zYBqVxwFHAUSTwGk0lOmTGm2Iw69HK59wWDQayoudFNujjAvTr2cziecOkk5Rd21be0qffjBQqOXh0HyoiejwPhJ1wmzBQDA/Dmlw9iJe3355Zcb5sqJn8mSW4Lxcw8ndtQG3APoQQqAWB+pAFIEUoJig0B91AiAhHPOOcdIFY466igtW7ZM5BYHgNAeNCHFJwCJ76AzVBH8PWLECE2dOtW0QapQJAGoM2gPGwaADqoI4n5Pnz7dkA7JCLG/oSmqCBKEsKBIE1qzaUgG7ZvqwwGEjqJ8evTbGkBIj1m4UToKdA4KtAkgQBqbupKTclGXLirp1cuI0GF6yUxhyemaEzkAAZUBp3j+RqxPzGxScDJGxP6Mi2swV3J5I6aHyQNmuBcQYZk5kgUAAjYNBP/BawNGju0CoMSCgX333ddIBsjUxW8AKvpGEmH7AIgAOvgd8MS9tAXjZ/wk7wDUMEYAANIExglo4TcADOABkMF1JA4dHcO7udfDAYTOsXG0dZatAQSAMO+IK44CjgKJpwB8nHTXzZU2AwTbIB3QCEwMhpeqjCvxpHY9QAEHENxz0BIFWgMIAOd7773XEdFRwFEgCRTg4EvK6oQBBCtNcMAgCauZBl04gJAGi9SBQ2wNICAd++Uvf9mBI3RdOwp0HgokxEix85DPzTRWCjiAECvFOld9BxA613q72aY2BdoNELDov//++1N7lm50KUOBY445RhdeeOEe43HZHFNmeTp8IA4gdPgSuAE4CjRQoN0AAcM5DORccRSIhgIEfMKIM7I4gBAN5TpHHQcQOsc6u1mmBwXaDRDSY5pulKlMAQcQUnl1kjs2BxCSS+9M6A0Ps549e5oIuXiotSdIHB5teJFRMIhNpscd/RKsjzlw8G5PgbETZXfHjh3GBb6txQGEtlLO3Rc3CjiAEDdSpn1DDiCk/RImfQJIJYkdA0BoDziwAwckUFCf4+aejIL7OhF+icJLBF3c4RuXYFa+wv6cPS77wvXKClZp14i/LLjgE7eHsAJEDG6rk4ADCMlYfddHixRwAME9IJYCDiC4ZyFWChCfhrD1xIWJZyEIHfFuklEIvU+MHmIFEeG3cbZjT34tGnuL6gp6y6ewGZInn7Jrt2n4u79TXs2WPYYJ4CDODnF4iARM1N+2lHYDhKYiKUYOxNv9Bwgn7PMrFMiX5/PL54WVHdyVFdGVzkOBVPRiAF0j1msryu4Mq0c8EzadRBcHEBJN4cxrn1C/hKCHmRHhtj1RepFCEFKfPDeEwCeibTIKYfoBCOT++eSTT76yF4V9WVp09C0atOxRFVSsMkMKZhfp00O+r/0++JMKKtd+ZZiAA6LrwqObioIczbwSChBAOBVFw+URTbF8meryirW537Gqy+2urPqdGrLyiWjG6OpkEAVSESAQTht9Y7qn0k7kY8JGQe6QRBcHEBJN4cxrH4DAvkJU2eeff95EzW2q+PILlDVwiEJlpQqXbm6yDnp7kvLR5rx585IGEKwUBECyePHiJgHCx2P+R8MW3amCnbvAQMifq0Vjf6v9Pri9SYAwbNgwE45/4cKFbVaVJBQgMIFlI26U3xfWPov/KPmliu77qqzkMFUWDdIh79yUeU+rm1GLFHAAIT0fEAcQ0nPdOsOou3XrZjLZcvrn1N9YPA8N/CW9VXjyZOWNHqfgui9UOf1p1X2yUPKsjHsXpVBT0BbGguTXIXR9MkqbAIKRKvwufQECepMtvY/V4H3Cyl81V2UbQobWW3qPVlnvIzT8478mg/aujxSigAMIKbQYMQzFAYQYiOWqJpUCGBXC2PlECriHoSKqsZGj1PX8y5W97wj58wvlhYIKbtmgqpefUeX0Z+RV76nqpi1Ualj/kyIgGSUagIANwpClDyrfShACuVp22I+130d/bpAqRI415SUIdrAFXT3tM6an3nm7u3LL18jv1SeD5nv0QXCef//7323uF1caRKyIr0jJTMEthWRPWIvyYKLrIRQsaZdJxkRSGRI/WT1QZOekcX799deT6kbT5snH8UYHEOJIzCQ25QBCEontuooLBXz5hSq64Ap1OeNC+bK/aj/jeSHVvj9P2/9xh0Jr0OvvKU2IyyCibKRVgKCAPj7mVtXndRcHb0aKsWJuVan2XfiHrxgp0m1KAgQGXp/TQ9Vd99agnKXK8++Ul1uoD7pdpY2BkRq27HYVlS/5iltGlHRsUzUYO0YsGH/gutKnTx/DxGH2oEVSNiOewggL5Ahq5JM0zqSFxheWemRkJEU0Bm1smAAFDGJwsQEY2CxztD9gwAAtX77cZGE866yz9NJLL5k2+c/96LnQDdEXGSK51hmKAwjpucrpBBBIDhcpZgbcc7q0KdD5ThIa3s1oCnsD739j33SukUKefcDuI53lPY6Gbh1ap2sPFV54lYpOPkv+rByz/o0LkgbPC2vn0sXaeddvFV77WVL5UuR4yNqLkSL8CdUGBtON4QoG/vXZXbSp+DCFfNnqv/VtZQWrldXI2N/OFJfJ0aNHC28MjB/bUuJug8CkKgv30Y6Bx2ts12nqEtqo+nCuPu8yURvrh6p4+TPylyVHr2MJMnHiRH322Wfi1P73v/9duNVBONw/cI954YUXTHQ/XnYYNgZrRx55pFkk6+oCeAAgIHZC5wVTx2/1ueeeM+4kjQECv5EKGskCfSFdYBPhP5sX6Z3RbwEm+G3NmjVtWb+0u8cBhLRbMjPgdAII11xzjR555JEGSR/vMu8d/uAULMaR+gHaoylYtWMR/p///KehOgyH937cuHGaP3++OQTcfvvt5rDhSsdTwOvVX/4LrlXBoaNVUFSo7NyvgoT62lqVfbFBpSu+UP5zdytnw8oOAQgcROEtxC7AMBJeAB8N+XNUlVOicCC7gaBID0q7HSC8GnpvX9Tg8kgFPAMLazYrK1xr6uM6efTRR5v3ANsMXChjLQkBCMFAgcKBXGXXl+8yAum/j/YZuFU7t4fUPb9CKxZ58kLJEedgbAIyg1ljfPLGG28Y1QATR6Jw0UUXafr06RoyZIgIuIEVKb+jFgDJQVQYuQUIqA6ow7XTTz/dbDqAgcYAAfEOC80pBaaItIA26JfoVvvtt5/mzp1rHgqCWSCZ6AzFAYSOW2VOwIDbpk5TrY0qnQDCz372MwP+FyxYYKb1ox/9yID/n/zkJ+ZvDgxIGZ5++unWpm1+bwog8C4jBeRdZlO/+eabdccddziAEBVFE1/J69VP3rnXyBs6Qjl5OerSrcgABX8gYGwUKsu2a/Onq7VtzSaFautVMuth5WzqGAkC0uxJkyYZaTRgk2cK7rgzr6++6HWsPH9WBBDwKWiCJfl2A4FdfBTgEPZnadCmmepe9YW5xjNK7hsk6MRWgJ/FWuIOEOqyu2rN0Mnqt3aGCirXqy6ru1Ye9BMN3PCUum19Tzr0BK0qG6QBKx/eA/3EOvBo62MjgIgRCQKTPeOMM8ypHqYMQECqgDQA9yrEg4sWLTKfXOekz+keiQInkBEjRhg0xmkCcSVA4uWXXzbob+3atQaEWOTGhkSOCvqiLb4jNWBjevPNN813pBUsIn8zns5Q0hUgAPRA4TwrtkyYMMHYmiS68KwhIlyxYoV5njgZwLQAtI3L+++/bwAAvzcuDz74oC655BKjOou1pBNA4N3iZP/Xv/7VAIOLL77YqPx+97vfmfW77rrr9OKLLxpQP3z4cJ166qnmPeTwAKhAH4yUkY0V2uNDbiUI9kSGG9yUKVNUVVWlf/7znzrvvPP0l7/8xQAEDgcnn3yy8aXnMEFfRx11lNkDCFjDurE+M2bMMMzqqquu0gMPPBDrkrj6LVCgASDsfYA8eQr4A8rrkm+AQtnq9dq8fLVqK6vlhT35fb4OBQjwkZEjR5qDJox81apVCnuedhQM0tqSY9Rv23sqqG1ZMlWbVaQ1vY5Vv7J3VVKxK/ojz+jYsWONagwQ2xY37rgDhNrcYi07+Dvaa9VUdStbKn+oWtWFg5VbvUn+cJ1W7XOldhbtp5Ef3ii/1zn07u5N/pIC6QoQQPWAQSRSbPwUXmheoHgUACpAEcYWCTp4qWFcSKzweDjZ+QAAIABJREFUacbXG8CKmBwm1riwuWDn0lTMAkTgMMe2BDxKJ4AATf73f/9XN910kzlBcUBg3bAnIjIezBx1AaAfevz5z382jP5Xv/qVHnvsMQPcMWp+/PHHDShjnQEIHDLYcO+77z5DdgAiawEosxIE7BWQLE6bNs1IEM8880yznqwv4GT27NlG8oAU449//KOR6DAewIsr8aNAJEAwrXqe6nbWavNHqHLrFdh1CDeFj46UIDAGa4Ng4yBkF4UULCnR1q77qWT7Jwqv265wnb9JAvlzPAVKCrShZLR67FypgtI1qi33mbDNqLd5PrGHa0uJO0Coy+muxYfeIPkDKtk4T/1XvyS/96WrCLEREIW4KIptWa70vyedAQKbO7rrgQMH7t5zPMNYsFUhwAondyQNSKCQFGHcClOiDslkYAbU5Rp1UV9RD4kAjB2AcPzxx5v2YV6cLpEcINXilMv9jQtiSfpDsgUTpF0AAuMBXNAXv9H/ww8/3GkAwhVXXGGkAZzcAVjQ6JxzzjHfOeFjd/T1r3/diF2tbQLqvm9+85vG24mN9dlnnzViX2wNkDxy+gckwvhZn8YA4c477zRtAyABCBTWBACAtBJA99BDDwkbCQADawv44BMVpCvxo0AkQAjV1qlibZk2LvhMVVt3yp8dUGHfLsovKVAg22/emY4GCI29GEZeVqWe+2FE6ZnxLZ+apXVzm5D8+Tz1OSSk/c+vl8+3S92wc31AC+/L0d6D9k29QElhf7bKuw0zuCy3ZqvyqjfL14HuI/F75FxL8aBAOgME3FKxVcGwlMIpHqtjvGE4+cM0sCuBQcNgZs6caVRHoHCYNadZXva7777bMB2+c6pE/4gIEBE0DAYxNqJxDGJpg/u5xmZhLfE5FdMPp1xUYYwJ8EJyGcABNjTvvvuuYWpIHQAjnHY7iwSB54wTFDSEqUOj7373u0YKwJoAFH784x+byHtWNwsz/+///m/df//9xn0ZEMG6YeR49dVXm9P/M888Y5h7UwABlQYqC9YGGwgKoG7y5MkG/J1//vm65557dNlllxnVJb+harjtttuS5m8fj3c41dqwcRB4HwDjRmDQq7/Ck69UVUEfbf3oc21dskbhOiTWX3oz5BUXqnBAD+V076KSeY8pd7cNAmuL2J+1T1b49T0AwpLFOvCSKnUfGt4NEKSVL2Vr/fwmQp37PPU+KKT9JtdhpWjmXrkxoI/+AUDYL/UAQqo9PG48qUWBdAYIMAw2D3uSP+mkk8wJnc0fQ1ikATAQrrO5UJ/5wjBgCIALpAOIqGFWiJ7RTwM0EGFPnTrViKdhVBSkEYAS7kGvjpqDvxGBw8CwiUFUDgDAzoVN7ZVXXjEAgfaoyykXnTenXozyOgtAgFF/+9vfNkAAgIAE4YILLjB0YY3wTkIqA62RGAC+TjnlFLMWSB64n/VDCgQTByQgTWBdWTPWtCkJArYOSApYS+qi6qFdJAfnnnuuAXuAOFyicb1mLfGscqXtFGANsQPDdRVpEGDQ61as6hHHaVuZp+pNZU0eUYEKgbwc5fXtoZ6r5ih7+wbl5+WZtqz9CJkVk1EaA4T9ztuproPCu4z8fdIXb+Ro47tNJKPyeep5QFBDJ9U2SBCqtgS0+NE8DU0FgIChDxuRK44C0VCAjZfTcGTp6GyO0eRigDkDBGDMvMwUAAEnjFdffdWc4AEPnEZxeUMtgDQB3SKFPhAnw6wxasPSnpMPDIyNDWbfGCDAnDi1AkhgUEgPACQwGPrFRfeJJ54wTA+JAcUCBMvoYEowM+pjRNdZAALrwakfhsG6UZDgIK3B5gCDYtYPo00AFYwakPCPf/zDALLGAAEa4xb5ta99zTB3DAybskFgzZAYoNLhmWEdWCN0wLTxf//3f8ZzirW//vrrNWvWLGO57krbKWBzMbCOSIRYW8/vVzgrT2ESH7biMOcL+BQI1kjhkLoUFhpQb3MxoBpKRmmsYhgwoUJdB4V2B0SS1s3J1balTWWr9NRtWFADT6hqEI5Ubwnos2mF2mdICqgYkkE810dmUyBdAEJjGwS7KhiyYfzGiR8jNtQEMHGucWqNLKgjYEIABArMy3rINAYIMHVUGLQPY+P0aWNzYJlsAQKghVNPJEBAnw74wNKe+1BldCYbhFjeGCQwxvVtd4TUWO5tri5tYgzaWbyT4kGztrZhszkCEJAWAaLbWqw6DxUfwK2jAEKDagMxR6sRATz5siTfbhvGMJqUsM9IsjBsxkixw7I5tnUh3H2OApYC6QAQ0OFzOkctYL0YYMKINznZI0JG/3nttdeaEztg4dFHHzVSA04HuL+hYuDF/9e//mX03xRsDAAIuDkh0kZvTrwO6x1Bv4AITpzcT9ucRtnAMMB78sknzWkX+wMK0gw2StrjlIsBJFIM3KcACd/61rc6hReDe7s6DwXs6dsa9sZj5rxvNkhePNprrQ0ki9gxYd+C7VDjqJ2t3d/4d/YAVGNIw7CHsS74sbbTbi+GWDt09R0FGlMgHQACKgJOE5Ev7kEHHWQYNcW6EREAyxZ01qgaAA6ccvjNSgAQd1PwXoDpI4rGSBF3RuwNEFHbwskWKQLSB2NxXVJipBScUhkTf9M+hTaIc4AuHEBgw7YCPBCNc6LAViHWkm5ujrHOz9VPXwrwrvA+EXAIsN5ew0LeRwqMuq0n71ipibSJd5pDB3YP7BttLewRRAZGbQkwQILQVpo4gNDWVXD3xY0C6QAQ4jbZNG2oMwEEpELMN1mpftv7SAAIrXdLe9tKx/th6IBkYlC0FyDAXC2AtqHyk0UT5gHoxx6mqZTVsYwDWmDbxOECT562FgcQ2ko5d1/cKOAAQtxImbCGOhNAQDSL9wF5VmxBIoPqx4bCbY7QuNrBZBKdJhhmQh+I1YndgKqprWLkhD00ruG0p0C7AAI+2OhNXXEUiJYC6ermGO38MrVeZwII2HYg6o1MDw+IxZMEG4/mjOA4tRFimcBHbY1cF83zgy0KXivolturq46mP1en81Ig7gCBQEmlvY9QZdGQZs0vPfmUXb9TA1dN7byU76QzT2eAgEU6dgCZVjC6tMGfmptbugEEbC2YF7YjGJth7IkxGzYjnPDRW6NftjYgAAIMujAuxbCT+TYHEIipgPEpYmDa4+QOKEDnSzwK8rLgQUJgKtpFGoGXBHYkBK5CJYDLIzTHKA2RNnpnbEbQQyMdwLAUA1bGTBsU+qAOMTcACHi44MbJ7zadL0CG8SPJoE3iXwBcMFrF7ZLx0gb1XWrqTHuT4z+fuAOEYCBPq4edr9r8XupSvqpJkLCzy2AFc7vq4AU3x39GrsWUpkA6AwRcqEgjnGmFUy9hh1sq6QYQiP9AhlQYKZ82aBTSAbw7sPImUNLPf/5z4zmCyygGn+iwCWAEY20OIODJQoZIglQR94BASH/605+MoSltci/xDQAiJIoiyRe6ZRg5kRRRVcDkAS7QlRDQ5ICA4aMuQEKBsenixYtNXRi5DYb1X//1X8Ygj0icuNFigMbakYgLV1dcXrkGCAGwACDQQf/iF78wbq6Ml1wQf/vb34zRqiuOAq299zyzzRViiWAg7QsGg15ji86mVAzkqd5efKACoVp1q9soX9ae8aO9uhrtyO2jqqKB6rf2jbRaHSxNeVlbswi18fATrYdMK+LtHqwDCKm3apkIEDgpw/hhpLyHhE/m2eN0zb7Fif4Pf/iDfv/735s6Nm0zqwMDpV5LAIEgTIAL9oIf/OAHJvcCRo2RKgZiYGBNjospUgJCLRNBk+uc4GHklJ/+9KeaM2dOA0AgBwSSDQpBsgAWgI8bbrjBtB+pYkBCQm4H3Gwvv/xyEy2T4HUUgAtz5+/vfOc75n7GS336S5aPf+o98W5E0VIg7hIEYjp4voCJ6tRj1AR1H32SZNyqfArXVmv7O6+o/KO5CntSIFwf7TjbXI8XneA16OvaEwiFzQVRHS8byJ4NprlCPcSbiPJA7M0VTjGcXHDPQbRJFLBMLw4gpN4KZxpAABicffbZJmQy7xjiek7YRPDkJE5ERMr//M//mDDHuKsiZeAET2nNBgEJAlkayY5JIfYFQbTI8xAJEIh1AWiwDJu+kV7ArGHkSBoogA0AA/0ThZF4G6gnUIMgXbCqArJTEsmxKYCANAPgAVCwwZmQNOCRgWqDdm3GSHJB4EZnAUrqPZFuRKlCgbgDhIaJ+f3qM+U6Aw6K9jtM4VBItZvXqGbdCpXNeFxeMPHggLGge0PMyEsHw0bkh34OJs+mgDgPhA6Dxk+dlxy9H9bBbDAWVIDOES8jgkSsQtY9dI+8fGww1MNgCOSPHhGxHvpGvvNC8zLSLveiWwTJAwywmGYshF/llIO7DkF1qMsmgbiTMdmEMqny4LR1HJkMEKzkqK20SeR9PG/NgdpMAwg/+clPNH36dHNCBoDzDgIEAAhseOwFFiDce++9RjSPBAFxPHsD4AIRfUsSBHJmELraAgTuRS3AqR1JK32j5oDu1huCtpFAwqCpg0cE137zm98YY28AAn0zPmxd2LuIiYH6gXETaRPpBvuJVZUQYwOAAQDik77YLyi0xf4GSGEsSEso6QYQCATGvAF70IAopdEW7DxQ29xyyy1R3YK9CFFL4QfkTyH9cryK9Txp6XAZ2Zd1ubRhwJsbRyI9ZxIKEPa69EZl9+yrui3r5c/NU6BLN9WsXq7NU+9PCkDADxTLY152HhReNB4yG6mOl5CXGmbPSR+jI5sqF4bPAhEsg8I9PDzoDceMGWPEhmwsiPgADegZySFPIhgeZntqABBwugBEcIKA4BgxcWIAIJBGlmv0jZ4UIyN+s6JRTgOcNNjAMqFkMkBgQ7d5GliraNRRiVpTnmMb8IUNCbDJZtfU5pRpAGHixIlGJA/wRg8PkyaqJe8U7xr2AZQf/vCHBvSzJ/BcwqB553m/YbIwI1t492HWiOZ5b6kPU6aQz4HDBAcO9hJO/hgpsoegfqA/Dgz0bdNNAzAACEgj2AOsDQJjZ7/gMIPRJL+x1/Cde1APIBWA+bOPcPAg9wdujoyRtaRdG3mTKJw8BzA9wBAFsACTjSfzS9RzDC1R5UATJCkYm7IfIhmmYEcBXW0MBNTA7KXs56wTzzt7L/dThwMYa8HhDtpThz3Wxh0ARHJY4xCHSogDJWOgDvfzXlGX54u2Wado4wxwyESSbSVHrdGMdbYHSN7fpgpra4NE0bbNZtla29H+nlCA0P/iHyt/8P7ygnXywiH5cwtUsWiutkz7h7xQ4iUIGE9APIgLM8dIB2kBTJ3FhXkjagP1g7JB21gX83AhDeCh4CWksBC8pKB3mDjAAWTHA0l9XjaStwAW+M819KAACh5iQuGijwQ40A/t8nBynTHw4rNJ0D6nC5gNKYDZrKiPQVImlEQABBgAawUQtJkWY6FVNMmaaK8lI0UkToh/2UBSsUAjxNpNqdmSARDs+gCSYV7NFaz6Ae7NBf7h/fnlL3/ZIolpn3TbrIUF6kjzYAjYAlg3Rd51NmubdRFJA0Cce3jfIzdlmAPPFvfynMGgbNvsC0TNZOz0wbuLZJH7+Zu9B/oD/JEOMi6YOe86+w7PDQyew4r1MoDpMAbGSF8wdA45Vg1ivSM45aLOpB32I9QpSEKhH/0xXsbOXgiAoQBiGSvMNtULTJKsnIADwBnrRUhi9mD2b/ZI1oUDHHsydLX7JdIjgB77O0my+ISG7L0AOoAA+zRMHtUP9AAgXHrppQYgAC5J//3973/fSJNYVw6dSIl5ZwCgtBNt7geyuN55550NawjwgCcwBtaX54JngmcURs9zyXiZO+8tBqisMeuIhIPC3FFlMa677rrL/MY9/A1/4XnjOUQKQz+8f9aWEE8c+mE+zYGcuAMET37V5PeU3wupx4CByirqvsczWFe2SRUb1qsuu0iFlesS+nzysvHyIJ5HLwlxeLAgOETDFYoXi80dJm5RJEwbhEk962cMo+akwcPEiwswsIyFDYO6PLCk+uXhYmPgdx4y7uE7DwSnSlA/LzAvLuoPNjTGxsPOKYfFYjEZIw88D4cDCM0/KtCUzInQiFMWm2csjDoeAIH1Q1/cEvNL6MPeSuMAYk7EMLLGJRkAgY104cKFZlPmPUkkQOhIOkfTt838yd7CJn3eeefpV7/6VcOmH00bnakOIAnJDHs4p2Q8QNiDYV7soxzOkAxgf8HJ/qqrrjKSIYAZkl1sPm688UbjefLAAw8Yho5kGZUMzyQA7I477jAADYDASZ/9BMkDwAIGTAZQ1DrwAJj5N77xDXOg47mO9tQeCRAAbCRSgzfwHUDJPk+f8CQOttjKMB+AEZIl5gxzZ5+D8VMALUg6eJYAj0ihkWjxjDFPwCDqlb/+9a+mHfpizvwO/Ticog4DMDZV4g4QcHNcM3SyAqE6lWwkjWljYz5P20oO1faSQ3Tg+7cm9DmP1M2wccPIITKbJUzYJvewomCrp4Uo1IFJW48FrtEG1/jN3muNEG09rtM2fYP2bFs8yPTN9cgHivpc5x7qgPzox/oo8xvXM8VnORESBNYDmnKaAuljtwGztiL21h6yeAAENg5Et40BQkcBhsaqhI4GCJx4kOCxEf761782z3lTJR4ShNbWu6N/JyojGz5AyaaObgq4dfQ4U6F/9mz2Vk7VACkYKMyRwxTMkveLPYW99qmnnjL7K94pnIo5GCJBwEsE91AyqP72t781TBmjTQ6CnOhpAwbLHgtAYG0w6MQIlf0Eg1TcQjF2ZxxkYwXYof5BqhitsWckQEDaDHMH1HDSZ4wAFKQgqJSYA2CIAyIMndTg2FLAbyJVl6iwuJ/3hgMngAbgAzjArgW7E+aOegkvFqRLqC2gAVI2bHNaytWQEICwep9zta3X4bvzTzYlTgwrt2qLDno/OsORVHhQ3RjiQ4FEAITIkfFi8GLzwlx33XVGmsBL3RKjjgdA4EVCVBzZD1KljrIdQXKGuNkWAAIqhqbEysmQIDAONnpOaoj72bRgkI3XpTMAhPi8SZ2jFaQGV155pZHYIn7nJM+pGIkCQAHjUJu/wNqMcDhAvXDrrbeaAxqMESkAkgHE9IAGwCrME0bJCdpK12CaMGukybSP/QNeKkh2Yc5IJGDQ7Cs8u9i2RBs1E4CABINTO2oSJByADSQYqFGQHAAGsFlhnhirWoAAELjiiiuMlMECBA6XAJgXX3zRHFqRXqMOYR8C8KA2ufnmm40dDBlksbkBFDH2u+++20ivsU3ht+bmEHeAEPYFtLNosGrzSlp8ggOhahVvbXvGqs7xemTeLBMNECzFMAbjBUGUiHoIkVpzICEeAIETMaK9yD4Q91mL8mSvJCcFNslIgID/f1OixGQBBAsSOI0BnBDTsjlG0swBhGQ/KanfH3p2VAgASyRRSAlstEgkMDBKipXmIjnkNA2T53CAdA9gzHWAM88edbmPdrCPsVJdJBYAV6S2PIswXq5hC0HfMGekvYjqYcKxuM5jO8O46B9pJ+8ozz6qcGJfAHQAPoAWJBmoMFBLY2DJddTjgAukJ4AJVOSAAuu+iuQAKQTGtAALAA6qct43wAbSDhg+fSG9YCzQABfZ5uwo4g4QUv9xcyPsSAokCyBwWmVDQY/HRgFa5nTQlGg7UQABkMIL2xEFoyR0takGEBgPmzFGeXxy2osECQ4gdMTT4vpMBgV4zmHI7E2ABIAGwAfgAdhA4oehrFWnoA7hfeA9AbBwyAHYcC/ABdUCYMnayQFsuBc7H0AG+w91uZfDARIE2uMajB/gxb0t2VC0CyCgu3DRuJLxaGVOHxgccaKPLInM5sjLh1ERhqO8HLw8iC0jS8oDBJ9P/q495O/aTaHSTfKqq1p9IFIZILC5Ado4yXDCwYOHzY7iAEKrS+sqZCgFOPXjjYHEA28E+Gu0MRMiSYKBIyAg0o2V2BeABPa6WEq7AALIxIUTjoXcri4IF5FdsgAC/fCSwXgwAELXiFgOIyErmowHQEBHisjc5pKnT8R6NmRum1fe51Pu4WPU7RvfVqC4RMF1q7Xt7j8ouHpFi01yEkFaY705EI2iL7XuUZE3J1PFECnRYCxYm0caLjqA0OYnxd2Y5hTgXWVvRO0QKyOPnLo1xI/kzex1LUX1bY507QIIab4ebvgpQoFEShAipwjTxnAQi17EcbhDoZME6OJS2tpL2VqyJkSEFnQgRkRP2Jw/f2PSG1+fnFx5PfvKl1/Y8HOgew91P+cS5R80yoQrJ55I9ZwZ2vbn30j1dc2uIBsNxlwWsLA5MJ6mSkcABDuOSMNFEgqxObY3DkKKPNZuGI4CaU+BdgEENtxoN8C0p5SbQFwoEBnhzzaYLIBg++Pkim2C9S9GrGeDW7U0ydYAQnsI5OXmyxs7UTrmVAMEfJ4n/uXk56vH3kOUU9RlV/Oep5qPFqjs/34hr3x7e7psuLcjAQKDACRgSMW64FLGyac5t95oAiXFhSiuEUcBRwFjq9DmbI4YWWABGW3xF3Q14Zbrt6yTvHC0t7l6GUQBbBAIOBJZsLbtCFUVUdkIRYvujyhrBLfqCIDgZefKGz9ZOniM9N4s+ZZ/JIWCZij+LkXqdtbXVHgsSc+y5NXWaOfUx1X+yL3Eco7LkxENQOBdt0mA4tJpo0YsaMOSm5TJGG815XXiAEIiqO/adBRomgLtAgi4eOC/GVUhWuDhJyqnZ39tez15yZqiGpurlDQKNOXFQASwaOOZx3ugMByMGPEdRm+fbIDgoVY4YbI0+kRp9gvyvfO6fNWVXw7D51PW4H1UOOF0BfoOUP3KpaqaMU2h0s3K9hea/zXBbQqreXVDazSLBiBgVBhLkpzW+mz8O9JIPD4ID0yoW6RKDiDESkVX31EgvhRIGkDI6tFXvc++WoFuJVp738/lRW6C8Z2Tay2FKdAUQEBXHm3Uw3hNDYZEnAIse4mIRtCS1kq8VQxGcnDi2bvUCq8/I9/cl+Vryq7A55MvN4+EIPLq6iTco3JHaEDhOOX4i7QzuEGfV7ys6lBpa1No8vdoAAK2FbhZJaognSAcLFHe8NGmOICQKGq7dh0FoqNAcgCCP6DsA45W70nfUF5ejlbf+VMFtzWdnSq6Ybta6UqBZMVBaIo+gAL03QRXIRMfn0RKIxhJPIwUo12TXQaJefIABsdOkuZMl/+1Z3YFJS8s2mWomLWnp0dk23mhfO1bM0pdw30wV5DnhbWpZqEBCZ5C0Q6joV40AIGNAlVMvAtrgiQSn2+CWhHmFtfH9iRrivcYXXuOAp2VAskBCN37KDD+CnUfPFTdivK16fm/qfKDN5NGcwJC4D7VHj03AXYi8yjQpg1gkbSJZEBHHQkQOKUS5xzjREKOkjI3MulWe70Yol0eLztH3tiTpTETpQ/myPfm81JdjVTcR96EKdIBh2O512xzhaV1Gv5amQq2BzlmG2PGstqlWlH+gkLerixvsZSOAgiAAzwrCEFL3AZiVPBOteTFQPArwtC64ijgKJB4CsD3yJ3SXMEbjKiSvmAw6Nk0kbZyVDYI/oD8x10s3z6jlJuTrV7FRar8ZJ5Kn7078bOTjF8pGyC+1uhQCS+J6xcnFE6TfFpXMAZkEyfBONCL20AViKAhBNbviD4Jazlt2jRz8rQJlWiHNm0bAAoIHG22r6QQpIM76QiAwDoSQ33+/PkmehjJnAiWZNc9HnEQoiWrUSuMO00adby0cLZ8816Vr6pCXkk/hSeeL/XeS775r8q38YsmmzSeDcEcDa09RCX+ofLJr6BXq3VVc7Wucm7aSBB4r0im89xzz5kEPKeddpoB4K3FQWAtkfy44ijgKJB4CvBOks48YQDBN2yU/MdeJAWykYaqpEcX5QQr9cWfb5DCsYtDYyUJ+bbRcfOJxwXJOjCA4uRCfG3CUcIsAA7ExOaEggU1hCE+NZEi2czI5EWSC+L7E/WNDY0kGbhjYdyGRTzXQVRIKmiHVJ02kp9NJR3r+DOtfrIBAutCljfWgdwExClvnG44WQBhl0Hi2RLujHNekm/uK7vAQbeeCk++UirpK99rT8v3yTu7bBGIoNijRP6CQgW3bJJqrXTAp8KsvuqVO1K5gW4qr1+j0trFqg9XtOlxSbYEgfcJ41DeR5LgANisDUprAKFNE3Q3OQo4CiSEAu2TIBT1VOC06+Xr2tMMzvOkwvwclXQv0Oq//lShssTbIeBSB8PH153UnpwaObHAOAhJ+cQTTxhxM+5VMHuyWhH6FYtqmAoAAubORoauGtAA4+ckg1SCDY3EGkgqqE/kPK7RJ1IHxNm0adNBJ2SV0qjRZAEE1hKpAUyI9SF6Im6MNrJgJMmSARCsQSJ2B8ZT4dUn5aur2QUOzrlaGjhUvucelO/jd+Tb7eKYN+YEdbv8OvkLu6ju0yUq+9Nv5FV8GfvAL6KuBRT26tskObA0SDZAQNVz1113GZuD8ePHN0SPYzytAQTSIk+fPj2Nnng3VEeB9KUAknTSbMdfguAPyDdmivwHHCOfz7+rfc8z4vl+fXqodOr9qvpodkIpB7oh4xVR5DihwCAWL15sVAVz5841rm2IOAEIEALjKCLtnX766SZOPEzd2i1gXc3YiZbHJsV3PpFOkGGLkyl9ABpQW9AXwIB0msTEpl9XZML/krY0ssQzUBLrheoLI0RUSuRRJ3d7otM9N7e2nt8vb8j+0ohR8kaPlzavk++VJ2QsErOz5Y05SdrvYOndWfJ/OM8YHZoS8Kvvj25WVsluzwGftPPph7Xjwb/E/TFKFkCINEjkfbngggu+AthaAwguDkLcl9816CjQLAUSY6SIW9aAA+Qfd4F8hbuCz4RDIdXWhlRZ6yk/O0v9ty7Q1lcfS+jSwKQ5ycO0KWyEMBBsAtauXWt0KxCAkz/gAEkBBlKoE5AIABZImkHBgpv7aI9MWdZIEcCAnQEghN8oMCg2MuoARki6wT2uJA4gAOaQ7mCESI54pERE5bNstey6AAAgAElEQVRJgFqifSIlCCZC4uU/krr13GV46PNJXbrKKyiSr7JC4j9BwwDR/t1AGnwQCKjfEYfJF8jaNXSfVD1/lsr+90dxf4ySARAAB6S+BrgByMni2JQ0xwGEuC+va9BRoM0USAxAKOwu/1GT5d/7UKmuWl7pGtWVbtLawBBtzeqngDwd179UO576Q0PEuDbPIIVuJL0ukoLmcmun0FA7bCiJkCAA+qA76iCkOPSB1CDaklCAANPvO0jKztk9HE9en4Hyxk+Rdu6Q762XpG2bGwQHkWMuufK7yjv0CMkXkFdTpe33/kFVM6ZGO62o6yUDIAAOUOcR48AaJDY1QAcQol42V9FRIOEUiD9AQLWw72j5R4yTt3mVvC8Wy9uxSeHqSpV32VvrhkxSVZeBOqCoVN3f+quC5VsTPslkdYDEAumBy0/RPMUTARCwNyAaIylOR40aZYwQW1IpNB5dIgFCU5TwAgF5hx8n77gzpDWfyf/iw/Lt3PGVqllDhqlw/Gnydy9R3ZIPVTXzZXlVVcrxd1HAl6fa0I52RVC0HSYDIBAhsby83KxPS0GxHEBI1m7l+nEUaJ0C8QcIgWyp7z7SzjKpaodUX9swCk9+VRf01uphF8jXrY8OXPl3hda3nLa29Sm4GulEgUQABMTXgARE1pEuq9HSJekAgYFlZcs79Bh5E8+T1qyU/993yRf8arhkE0GRHAzESQgGVZwzXIOLTlKWL0+VwQ1avuNZBb2qaKfaZL1kAATWB9DGGrUE3hxAaNdSupt3U4DDGl5n7A1tSXMcScjCwkKjXkYK1lqslExbgHYBBIh23XXXxUyTsD9b64eeqR6161S45u2Y73c3pC8FAAiXXXbZHhOIp5FiWyiTbIAQOcbwwWOls74hb+1n8r03u0lVg63vC3k6YjPhlQsamlhf9bZW7XylLdNuuCcZACHaATqAEC2lXL3mKICECq+zWNSMrVETNSYeadYmrbX6sf7OwQZPup4D9lbJyCO1tcaGAPBUu26lalcv1YEnnCKveC9V1e/6jRBpm2ZPU6AmpAGF+6imok7VO6sVCoa1PbRZW4JrFQwFG2L5xDom6rcLIIDMHnnkkbb0K0BCXU535dVsadP97qb0pABxKHA7jCydGSBABwMSsEnIsXYKTa9tzs6gjnhyu/wRMKKsZpmWlkefUbWplh1ASM93yY26aQoAEFBlARA4xKLasgHvYqUZ0i5ykCQaIGAU36d3b+196GgNOe1Craqy7kxS5YezVPnuDI25+BqV9RiibdVEUN0FEGpfvF+5O0Ma2WOsylZVqHJbtcJeSGuDn2pF3fuqqa1pl4t9uwBCrMR29R0FmqJApgAEvGJIakRhQyEYV7RZKj1jyNh8/gXTqCeNqDhKPXL3MREUQ16tPiufrs21H36FrHjWEK/DqlwA88T+cADBvYOZTgGeedzSiUODWmDBggVtZpKoxIgDgIps1qxZxjstEcUChCGHHqkhp16k1dV7AoSd776qMRd/S9u6D9G2GtR1uzaEmhfuMwBheMGRKl25Q/V1uyQG64LLtaJuoQMIiVgs12ZyKZAJAIEXfMqUKcY91ry6nmfcLXGVjWfJD/RS77yDTZrn8uAaba35RCHvq7YLRA5FUmNdCdngiO3RlD7WSRDiuUKurY6mAAABV1qkCITzJuZNKBxUQYlU2Mszp++K9T7VbPuSCTc3Ztoi/TiAP1UBQvaOeu0TOEzb1lYqHAyb3CwpARDwPScqmiuOArFQALEV/23JBIDAif2SSy7ZwwBv5syZapy/JBY6NVcX6cEuASMJnUwOyK8Ukh/hdmsLgIXU1uj4GxcHEOKxKq6NVKIAnkzFxcXGs2n79u0K5Ho68HxPQ8fviimybJq05Kkv4460NHZi3aBqIJZNoowU2ypBqJ56r+o3luuA/KO0c2OdwiEAQjg1AEJUyZpS6alxY0kJChDB8owzznAAIYGr4QBCAonrmk47CliAsPeJu2KVLXvBp6XPSPnFHmFGTKyyqlJyp7cuVUjE5NsEEDxPZU/crtp123REyQTt3JS2AAGiN33SSQSxXZupTYHOAhAQSRJuuyMKAGHcuHENEg0nQeiIVXB9pgoFfAFPJftLxcN28aHSJT7t3CQdckWdcoo8hWqlBXfmKFgVnVQh3vOKFSAgBaknKeA/f6uc7fU6stdJaQgQAgHlDRyunJJ+ClWWq2bNcoWqK3dlcSRzkyudkgKZCBBQmZBbINLHH3BACO+OKFhek2XUjgeAQFZLLLqdiqHpFenVq5fJ6ordCC5niKjJyor9RjoU1FysN6HjXdmTAj6/py79vAYbhPL1PgMKDv9WvXKLPAVrpbf/mKusfE9F/XbdW7Feqt6aHMAQK0AIemGV1wS149FblFceTEOA4POp6+Enqse4MxUoKFKwvEzVa1YokJurcNVObZ39vEJJiqJIGmdsJdr7ohPXH305uihyOcTqOsM40InFEriDTWvIkCHGAp08Ec31yQPG+GAAqR7JMRMBAsFUzj333D0AAs9brM9IvDb2xkGjGMfzzz9v9LGZDhBIvEaSLuZMQrXXX3+9WQ8OSwuSR2HUSRbXDz74QBMmTDCGadOmTYuK4V5++eV67bXXWu0nXuvbVDtjxowxXjTYvriyJwUCOZ6GnBRU/1EhYcLzxayA1szOUvdhYWXlSKF6qWy5XwPHhTToOA6w0urZfq2Z2YpnUZwIHQtA2Pr/2zsPMCmrq4//p24v9C5FQKQoimJDMSKixoKF2I1RY41RY42mfJpYks8Yo/nsvbdoYsGGYsMCdrEiCih1WWB7m/I9v7teMuLCzuzO7M7M3vs8++zuzH1vOfe99/xPuefUNamyMaT6UER1D16ZmQDBV1iqfoedpdwBm6t+4QfqsfQTBcINWukvkUbtqFDVOi1/4KqU52IAUeM8Rqx+kia1tcB8iSFPMiAOfq6wbezw54ACSFAnVmLDcQZ0nwhQwRuXqGB4pT/33HMGJLRU8LZFgsCJxmagJFEU4+4sNffGaJ2NAAGJkwREiYR4buu72JbneFeffPJJwzCzHSAA1s4++2yTUprcD9OnT9c555yzSbKdfPLJBkgQCGf06NHCRBMvOKBhQDxCQyJ7uy3ruKlnpk6dajQgAEFXNgAIOVGN+GlIA3cOmz369SyPvn4+oML+UflzpEijVPGtR8OmhTVsz2aN0dezfPr62fQDCEurG1TVGDb8JzMBgtengpHj1WufY+UtKFHxzOu0y047GqtCQ0O9Vqwq0zfr6rT8i49VWV62nqGl4qWGsfbo0cNk97vnnnvM5h85cqRJqMRBQm75YcOGGUaKWhYJH2bLnXakiXfeecfcod1zzz31ySefaPny5WaYMASyBQIAYMAcEEht3D1/8803TUZI8gOwYWHUixYtMpoD1Jc8Rz+0yxWcHXbYwfRNOzB5yty5c02QD8bNC40m4cMPPzQHF2PjMKJvgAjtcjBxRxftAfd/kRRxIh0zZoxJR01aasAFfQKUqIOk1BkHWjYCBNZtxowZLWYoTMV7nWibgEZSm5OxNNsBAnvzzDPP1GWXXWbW4+qrrzYAgb+RsO1NDtaMz9gDAAqSSbFHuB7HHoNe7CHOCc4Q9iEmI/YlQgCf82PPDPajBeoE6+Es4JzhGQ5z+sNswTNoIdmrtG8FDZ4lAyzPsafZ4wB+zFf0zfNkjGWM9MlzsWNDC0I9BxBa2B2eqAr6RJXPNUcy7q70KNzk0fa/alBOUbMGYc7lQfnzpMI+39dZ5VFtWRqZGI44WatKBuubijqFGWKmAoRg74Hqtf+Jyhs4XJFwSL1fukUTtt1GoabQ94laosrLL1B1VZVmz35JX3zxRaLnXVz12SwTJ040TBp7LBuHTYxUwebbfffd9fDDD5v/u3XrZpgngODUU081d17ZkDBlDlWkwxdeeGH9AYs6edasWaYOqaDZnPfee69h2GgKaAuAAfDgUOCqTFlZmQEBJ510kv7+97+bfokXzgHCz/bbb2+ABPSwtms+ox4Hzcsvv2zGxjjoA+Axc+ZMc8hxK4CEOBwyMAMOEQ4pDjYOG+YH6KAt1FkccgAextnRJRsBAu/abrvtZrQ9tnCAd5aJgTHEplNGc0BchpbWO9uuOQIQ/vCHP+j22283wJp3/oYbbjC/AeO33XabWaI99tjD7E32OACBvc+1VM4MPic7KGCavW9zfcDQ8eVAs0fcC/YzZ8UJJ5yga6+9VpgRESbY6+w76t16661mPx5wwAFGEEDIQKCgrfvvv3+9lhHmz7PsX84L9jxCDfvFah85b9jjjAFt5LHHHmveMc41opQiDPCdKz+kgPFB6B9RQW84q8f4FzTVeTX++EYFC6MKN0rvXBdUUxo7KU484mQtzh+oZdWNzYGSMhUg5A7ZUn0PPk3+om4GIOQ8fpW2GDlC4e8T6uQQ5a1vX+Xl5xu73by5c1PyPnNYb7fddmbzsMGRvmG+ME02/r777ms0CEjToHkOUb4/5ZRT9NZbb5n/icTFs2w+Ni1MmEOWMJ5sYBgtqB9NBSpJ0D+HEpIKfgMcCmgSODgAJRwogIs77rhjvTYAhs13MHQ2O3WsaYJDjf7RAHB4cVi89tprRgpiPhxqgBDmwNg4fJgf9sjnn39eAwcONAcJhxVmFsaJdzt2SvrsjJKNAAE6so6x8R06ExwwnlhzB+/pxnxTshEg/OUvfzF7m/ed/QpYGDFiRIsA4dFHH9VZZ51lAD6SPRoEnnvssccEbQDxTz/9tFlfguagkWD/T548Wddcc43Zn5deeqmuu+46s8/xZYBJ4/dE7hGkfLR75Ae4++67zR4n0h//o7Wwe539zw/ghP1OzpIzzjjD7HnmwDjZ69OmTTPnFOcbQIM2KUcccYTRODz++OOdsa3Tqk/efWgJ2IJ2+CAMmxbSgB3DJg7CotleLZkdUOkwvpMiIWnNAq+i4R9fc7TZR2krVXu6NR+EqnnPa+tDT9B3xUNUVtuU2QDBV9RNPfaYoaKxO5nLjcXP/FPbjt96vfQCwvf6fGpqbDQqdhB8Kgobk02EJzILCxOlgML5DCSOZM0GhYmyuQAFHA4wfRgoBwaFlwRNAUge6QAVPgcHUhpAgHY4BOiT9vnNC4VUwAuKFoJDmufQZsCseYbCgUB/2D8ZE3VsiF6+ox1eIPpCG8Jn+DdQFy0CdRkL/hHURT3KoQW4Ycx8T5vMDZBDXQAS4+mMkq0AoTNomYw+sxEgoBH43//9XwPYDjzwQKOZQyuHBgGwEKtB2BRA+PWvf232mTUtAv4B94ANzJU2F00sQMBkCTgHlAMC2O/WpIj2j4KZk/Po2WefXQ8Q2JtoNdiXgAuEC+bBfvnqq6/MnmX/77333sZUSdtoBe356XwQmncD5yRnHDSGTghOHn9Yw/YKqf/EsDxej76Z7dHiFzed+8SCbBxWOcMR9Cw/SMa+i22jNYCw/KXHtN1Rp6ms54jMBwhmkXLyFew3RB5/QFv1zNMOE3cwRC4sLFAwmGMYbijUZBzvYGwdUUCV9oexABrY/Pbv2DHE83lsW/wdiy5jpTf+jlXttlSXl9o6F26MFvY5Oza0I6gskTaQduzLGzv22Gtu2E3xjaAe5oXOKg4gdBblW+43GwGC9UFgxmgKOYBhFLz/Dz74oGHe+IywZzcFEI488kgDrNF02gLgRgMASMBESYkFCAgYmB+pZwECAANwwT6l4FvEd0j7CCjsfxgRwB5TEONCI4FJkf1CyGDr04SzNIwP4MFepi8KmknOEEJqd+XC+Qf4Yo3QxpKFMRwOKVAQVU5xM2UaqqSm6tb9C1gXzDidGWq5fO4LWvzMA/rJKRdoda+R2QEQYl9Q1OSotXNz84x0TQrKurp6la1aacBBqhJgdIVNYq82xjNXwAIgIZFrlvG0m2gdBxASpVhq62cbQEB7d+GFFxrVOxo8nIL/+te/GrMf0jcSN4wV7QAaTBgq1yIBDpgNYS5o3vBZQst30UUX6frrrzdaRgD5/PnzjfMvDNoy/N/97ne68cYbDQjgWW5EWIdhNAr8j7mAPjAP/vSnPzVaw5tvvtloF9mb+EShoWRMgAW0Hb/5zW+MDwSMjn7RIKApQGuJFhRfCzQlMEVua1HHjim1b036tm6TNeH/gebo/fffb1X42thsAAjcgumIZE2Yp4bGJGtC+x6ORPTda09p9ezHNeXUC9cDBJPNMcYHYWKvPVW1QSTFBY3vmbO+PX5m7crmGG+oZYiMlIu6v7KqSpUVFWZTtCYxp+8r6EbWHgo4gNAe6iX/2WwDCGgn0RoYSbGhwdzWwUkQJowTMYwDcyLMlLMJ0x4MHzU+9fHhwQxqBReewVkYqZ5nrHnQmgXpB20AnyMAweQxAXIw0xYgnj4wB1oTAmcfjAxThDX1UW+XXXYxJkSkXp599913jbocEwVmB57Br4izF5ADSAFIcJ7SB/WSnSAs+W9calu06Z7xG4PO7YlHwjsDsEx1umfG3KtnTwMQBu95qJbUSZFoVNUNIa16+3lVznlKk088R+v6jFR5jA9C9SNXKacypG177q6aVY3N2nBFtKxpob5u/FANjZ0IENhM1iM4tUvuWs8mCuBAyYFqS6Yka0IKxKks2wpMC3X7pgqSBJJxqgvSNcx8Yw6VMO3f//73qR5G0ttHcwdwQENhNRmcn/gkOEEpueQG9AEOMONQ2nuVG/MUgBJtt/VFSe6Imx2KS0tKNGDo5iocMFTVTRHV1tapsqZGDauXq2nVd+q3xViF80vVELY3z6KqX/ixfE0Rdc/po1A9ZnNGFlVdtEoVoXJj5mqPY2W7NAh0DGJ1xVEgEQogZdl4DzyXKQABR89UOSklQr9k10WzhyreAYRkU/a/7WH2wHcAbQDgBxMB1yNxeHYl+RTgfEELRGmPip3n7dVxexsu+aNtbpF+2Iv46YXDEa1bu/a/4CbGx+0H9yzMfcfm9PKYHZr/af4f4Nle8NkugJAqQrl2uxYFMgUgdK1V+eFsnQah/auPFgEmQAEktFeybf+IXAvpSIFYx/LOHp8DCJ29Aq7/jNEgdOWlyjSAADPG5s/VQSRJJHVuMXS0g+6GjsE4GKKqbilpViLvl7kW9/0NJqROrnDiyNhZV5cTGburmzkUaBdAQH2BY48rjgKJUIAAT7HFaRASoV7n1M00gMCNAO7BE8sEcIDD37x584wPQEcWwAmBl2wCJRxCiV3QUtKseMeFQxvXNYneyvnLNUzWh6vLzmQRLxVdvXgo0C6AwLWfSy65pNV+/KW9VDB8K/mKe8jj8ynaWK/GsqWqXfixIg0uNWmrBMyyCldeeaUDCBm2ppkEEAADhD4mTHFLTmXcEuDWAk6DxBcgoBg2a6ISomHgZgBRS2HiNr8B4ALpHB8CmDB18NugHrcGsPlyCwHnW0wH3JzgfCQcMzcgyOtAHAOeQ5OBTwI05Rolzp+0Y5Oqof3gGa40AnC4scA8rEkC4ENYb2LI4MuwYeE5QAnt0ybjQ5PBdUtMG4wBUMENCQrX67iKbkPN40QJPbiJQUETQ+EZgrDRBk6AXCFkXASMYu5cz7R5LtDc4CSIpoRrpcwBwQAHVOpDc4AOf0PXzgzclmFbsUOH2y6AEM81x5yBI9Rz6hEK9h4gb5BERB4pEla4rlrVn72jdW88pVBFx6L6DqWw6+xHFLChYe0XToOQ/i9JJgEEnAFhki3FAyAUOmp+GBQMHCaG5A0TJdwyAZFgxIRSxgMcJgoDRxNA3gSu6PI3TJ4CYyUaIozvV7/6lQnRjsqf/gm9TtjlXXfd1dx+4Rri+eefr3/+85+G0XJ7BMaIozd/M14AwYknnmiuWK5YscLkhWAcPG+ZL/MDkHBFckMHPEwPxE5g3DBnrkAyPjs/ABGggpwPhKLmb/rmCiWMGqYPcwf82KiPgBFuBpDn4Ze//KUBOtQnEBFggc+ZM8CDDJoAETQ4aEq4kgkQIyDU8ccfb2hGXAJuBUA71oE58LujtTvpsut4v4gTBD8lSFY60SGlACHQe6D6H3mu/MU9FK6uUJS8DD37mfDLkVCTSfVcMW+W1rzymCL1nRP2N11ekq40DgcQMm+1MwkgwCBJbNZSeneYK8UyVzQJMFESMxE46dxzzzXSNhoIGDpMEmZJECKYH/kOYLwEUYJJE3gJxk1MBJgoKbX5ffHFF5sARmgKCHREQCTq8xl5ItBWEJDJ5mIgMBKgAqkdrQXaDxgnYyNiIxoImy2SEMwwEW5BbFgwYSDxEwKa5wFAtE2yKgI1wahJIkcsCGIuAGLIKcEVXhuSHlCCVoG5UABU0ATGDgj629/+ZpgZ4wAsPfDAA2ZuaJP//Oc/m/kCUNBeoCHheYCTTW4FYEFzwPzJcWEzU7bnOl7m7ajmEaOteeihh3TnnXcajRW0OProo1tNT95R800dQPD51efAk1Q4dic1rVmp8hceUFNFufzF3eUNBJU/crwKt9jOAIUVj1yr+sXNiDwVhUVo731QNj1IGOkC3wuQc7xXSGyaWZ7lwKDEBopC1cZG43srJWyKDqj/mE97r++kgtbxtOkAQjxUSq86mQQQbHhkJOTYguoegIC0D8OiIMkjIWMSILgSDJxy+OGHG4CAQyEmCZI0EfOFcMZ8hiROgclyLiBNAySs9Iem4o9//KMBCxYgUD8WIFAHZslZQmwQJEm0GpwNABwKUjbaDMwJ1rGR3BKYQvhsQ6YKCMDfASmfwrnCOIgdcdxxx63PHomphDkSYZKEUjBraAJjB1QAEAAPlFiAcOihh5pcFGgA0DxwnlkgQT8AIdqFFoAIbm0wVsJZAyiIWomWAk0HES4ZB0CH8Xa0A2k67DA0L+QGAViRgIt3l5gkACeibpKYi3eU9wowCQBkbdA0oHnF3MT7DH0BXWhu4CG8R4TgxlSFaQewBjhMlMYpAwiB7n3Ud8aZCvYZpMp3XzL+BrZEQ02qX/a1evxkhoq33V3lsx/RujdmGtNDsgsvKOobVII2hXJb+uBFZqGwP0J8FoyNHE/hAGGRUMuhhmNzsYhWwsFeaFMw2429sXY5cFAB8lLYhE7xjCGd6qQjQODdYF1daZkCHBS8/6kuyQiUxF7lkCXNMnvOFvYOBy77BokZ5soBC3PGfg7jRTpuDSAAHGBqSNVoELDNs7+xx6OZoNi8KTBKQMVNN91kPo8FCBz01EcwsACBOBtI3TZlMxoE2oaxWoBgM0HCwDkHYgtgBMEFjQMFJkL/pKImOySaBWhsAcIVV1xh6qF1IA09jAeaoeGASQFeYFqMCw2CzUQLo2kJIGA+IYz0m2++afwqYgsmHKTlWL8Q3im0NYAdnumKBaYOSMPMwruFGQdtFqYpzDUAA0J5A3gBi6wF7wd8jfcMMxaaLgAX4A1tFmsAzwPs8Y6hveEdBAgnUlIGEHIGDlef6acIoBCurVofw8HjJaVmSMsevFqBbn3Ue7/jVTX/Ta1+5m7zebILIZ5R2SFtQ0ReSDYDDJ7JEzqV60JIF0gKqHn4nB82n3UCQk3H/4RTpQ0OBcAHzjpoAGx8dlAzGxQ1HpuQ2OwsFBsOG5/Nssims1nlsM2xcdh0OPtgt6N/ED3SDRuWcWGTZC6oodhktE89NiKgATSPV3PsoZhseiajvXQDCKwXaxOvRigZNMi0NqyWK9XjTgZAYIwwSpwVkVZpk31ImnT2Ogcr0hpA3TrbcTgj+cYDENhzNu076n+0ABzUSOgwWBsFkv3LYc3+RiPA2YEa3poYWgII1IORc5Cz55EAaQ9p0gokaBA5j6xzI+8u5gmEC8aBDwNOldTnvEAQ4XxqCSDANAAg9AHDZ8zQAgYDjQBR3JigjXgAAumvkWQxYZCKnnOVNhgP5gkLENCekNSK8xB/CHw/qBNP4Xzkh8KZDFNNRoHW0B1a8J5AS87cDQuMG0HRapHa0zf7Ct7EWf6LX/zCvFdoCVhDtDVov++66y796U9/Mv3xPuH0yTlPIi/WC4DA2rB+AAn4GO8ctOFv3nsEUN4B63ga75hTBxD6DVWfg09VoEe/9XnpQ5VrjOYgVLlWa+c8qcItJqjHXkcaDcPqFx4wPgnJLiAoDn4yH2LXQ6XDZ9jb8DgGifE/qjheCBg7kgROQjBsJAskSyQBJH2YL8TmezYBREcNyOZEhQZyR0vAYsLseelYKIADG5nv2BzYPDkwKGwU7H4sOi8MoIaFRUUEspw5c6ZBjvRlE7dYaYK2mR/okQMFQMNmTmdml24AIdnvnGuv7RRIFkAALCN9sZdgQgB6nBHZFzAXPmevwQDYy+x99iFMkQLzZSzsd5gcAB/GiS+CzYTK4c2By56jXbQRCB8c+Dgb0i5CBOcLZwbOfNSxtxhg9PQPAwXMcBjTFuOwNyo4B+g/NmcD4wMQwFSYC2NHA8bYOWN4nvnRN4IQ5wrjoz5jgh70RT0AFGOif84U5gaDhHacU9CNNqEFf9MfDJk5AnCgIWcpBX8OVNloagBO0IKzEwdJ6MFn/A0wQ6tKv5zHjDGRGBUAOcbOvPix6a4TeeugBWcugMUWtCuAGOaJuQn6WfNJbNsk74JOVkuTSL8b1gWI4DMDf4D5Mx60B/AHzD04xSIQMl/AK+YeQAzv4j/+8Q9j7kI4xCcGXxLeM+sTA/9AwwXtWQecbBPVkqYMIHiCuep/1HnKHTTye3VbRGtff1JrX3tC0aYGBfsOUd+DT1WwRz+t+M/Nqv54DvEh20PrHz0L04egEJDNDJJC8mbz8TcOR6RrBSiw4dhkqG9YFJAZLy7EtcyWFwaVHy8+HrpIIiB7ECULBqpnEdgoSCxsNA4QVIJsfKtBYCPSJ4saWw477DDD5OmHg4PNxqKj6qMP5sDnHBqMibbZ4GxkbKu8OHzGPNLZ4ccBhKS+5lnVWLIAQqqIghSOjZ991xEFRgVD57DPVJ+jZNMJFTwSvHUIhQkiPMFIAavAEjgAACAASURBVA+33HKLOS85YzHDcGbyDEIb5huYL+YO+ADOmzZdNloMzmB4ANI7zBZTFJI5jBvBEa0Ikj51+B7JHV6BSQu+QFuJAhbALD/wBcAT7cK7ACo2+Rf9bXimUw++FRt0C8AB0IAOpAsHeAD+4CuJggPWLWUAgcaLJ0xRr2lHyhPIUTQSMZqCNa8+Ln9RN/Wd8WsFSnurdtGnWvXkbQqt/aEtLRkvFcQCeaG6grg4GrHZICjMFw0ADBVmDgoGEICwWWwOAF5CGD8FKcCieTQLoHVeCH5A67x0tMcLiZaAzwAILDAMH2DC4lvzw3777WdeJj4DaDAu0DlaBcbNeFE3AhA4kOgbOxLergAONAdoFZBwAB+omfgMc0O6B0txACEZb3d2tpHuAAENHlJboqraeFcLqZz0wjAEmATaAwSJ9vhPxdt3ptSD2XPecWZz3qIN4EzmLEVYQvK2/hQ4X3L7BNAAw+Ss5RnObRxML7vssvW0BSDwLD4qmJEBB/hFoMo/77zzTGptNM4ABRgnml3Occ5nNEuYjlinVCV0am19GAPvDLyHbKDWH6a15zb1fUoBgieYYxwRi7aeJF9+kaKNjap4Z5bWvv6E8jYfp6JxO6sCB8YFH5BRoz3zaPFZVF0wZ2sTBG2BulDJ8ULxIpgU1JWV5nmb4AK1GSowPrfaAz6jrr2SA5rnf1SRAAykd+rTLn3SFm1w4PG/ScMZjZof/mYc/KZ9QIQNl8pnmCYADGgcqGfHz2HBmBkLz1kEyZj4jnboL90lDQcQkv6qZ02D6Q4Q2JtWE5gqonPIw+iQ+JB+Xc6GH1IagMAZBwMHSCEoYS7ADIyTHqZgNC8wSdYL733AAQLWaaedZoQwzlHqYC6wBYBwzjnnGMkdrQQ+HIBBTAB8zk0QNM4ABAQxAMIFF1xgnAgR5GxK6Jau127qXYEfwUdstk8Evbac4WiYAZi8N8lKKpdSgABRvME8FY6eqPwtt1NO70GGOa994ykDDNAkhKrWpcT3IFWbN7ZdVDcsCMgViSJTbxV0BK1i+3AAoaMpnjn9pTtAyBxKZu9IAQgwVHw6OHfR8qIdRk1/+eWXG98G/seMDKNEK3z99dcbzQwAwQaL4lom9a0vWEsmBkAAz6J1wHkQJ0wAAsImIIFxcLsA0wUgBc00ZudECn5mgBo0v4AcgA+mi3QoKQcIZpIer7x5BfLl5ktenyKN9QpX/vf6UToQwo2h4yjgAELH0TrTenIAIdNWrOPHi/ofM6w1FwMAYNRI8Jhb0dhax0u+QyLHLwzJ3jqfonXFbIyJFsdJCgwexozGFhMEwizmAm6CoJ3lc5wi6Zv/ASRoeGgDLQZSPwAhkURcaDi4pYD5grEyBm6QXHXVVcaxHkdIAAnO8giiXDNlfmhFcIBnfIwffwt8H2gPIARowoSNOZqbcJhOuEqaaOkYgJDoqFz9rKaAAwhZvbztmpwDCO0in3s4wygASOFqIs6RFLTSmEnQbsDo+c3VWM5MYnhgwsaEABgixgVaFIAPvjFoQNCIUJ+rqdSlfaJ64sPWUt6O1sjVLoAAoiEwhiuOAolQgHC2saWzczEkMnZXN7UUcAAhtfR1racXBXBM5yYFDoZoHtB84Ndw9dVXm1t2FiAAGjg34bkABDQVaDn4jRM+AAFTCf4SxOLApw3nSUzgaDcwg2C6SLS0CyAk2pmr7yjQEgUcQHDvhaWAAwjuXehKFMBc8Nvf/taYKWD2XM/EjMGtOD7HxMCVS25I4ANhk2NhQsAxEjME1yy5QcdtF25cEM+Ba420aTOXYro4++yzE77+7gBCV3ob03SuDiCk6cJ0wrAcQOgEorsuO5UCMHGbnhtpH98H4ukQrMqG7Cb+Ao6R+BTge4Fpgd+ABIAA+wbnS56xkX6J4YOWAW0CvhI8k2hxACFRirn6SaeAAwhJJ2nGNugAQsYunRt4OygAEOBaPo6P3IiAoXMrjs9jrzxSh89ig/fZK/S2e3vNns+py/9tvSrbLoBgs0a1gy7u0S5GARsZLHbaDiB0sZdgE9N1AMG9C44C6UOBdgEEwk8SBjje4svJVW5pTwUKitRUU6X6dasVbqiP93FXLwsowJ1fQpU6gJAFi5mCKTiAkAKiuiYdBdpIgZQCBI/Pr5LBI5XXvZfCTY0qHjhMfbbaUYGiElVXVmrpu6+p7O0XRBInV7oGBRxA6Brr3NZZOoDQVsq55xwFkk+BlAKE3lvvrGF7zVBOcanqGxsV8ucomJunhlBEtU0RNdXXaPVLj6ji3dkZG00x+UuS3S06gJDd69ve2bUGELjLfcUVV7S3G/e8o4CjQBwUwDHSpkBvqTrhoU1QqVAoFCW0ZGzZlInBG8zR1j8/Vz1GjVddKKLyupDC0ag85DyQFIlKHo9U+fEclT93n8I1zfkQXMluCjiAkN3r297ZtQYQuOblEhe1l8rueUeB+CiAUyR5QTZW2gYQPB71GLWNRs84WTmlPbS8ukH14WZwYEso6pNXEYXXrdSqp25X3deffA8d4ht4NtYi2QbZJ4kfTsKQ9qRspi0iaaVbcQAh3VYkvcbTGkBIr9G60TgKdG0KtAkgFPbbTKMPO03Fmw1XfVNYK2ubRK7GgBrlV5MiHq8OLr5NH9bvpK8bx6ixcp2+vvXylORn4F4oYScJOEEEKnJlU2CeZGWDCZMJkSshXDEhfzZ2FwrZvCyTRtVCak+CWBCvG298nqPwDBkWycLG30S7osCkCW7BlRQCV3z22WemX/rhf/qkL54FEBAvnDusNgEJ7TBeflOXay/8pl2urdAfc+I334H2mO/ChQtNiE3id9MX4yT2OP3wN1dfGGdbMoa1dzs4gNBeCmb3860BBN7bjz76KLuJ4GbnKJAmFIBnkPMhqRqEbiPGaaujz1Y4r1BltY0KRzErRLVlzvvaKvcthaN+7Vv8oD6v30ZLmjbXN42j9Pj1r6luyQ9NGO2lEQxz7NixGjVqlObOnWsSWxDKksAUMH4YPQyW4BQwYeJgo76038OouY9KIaXzlClTTBIMUjtPnTrV/A0DBmjwGyZNsgxyiMPASaABIPjkE7QjMt8NHz7cMGbGBigg8QcggGQaAAQKn9M20bEYH4vEXVYABgcozJ862H6++eYbAypsCmvmQhYzrg7Onz/f9GdTR9MGffGboBrJSgmayDo5gJAItbpe3dYAAgltSLvriqOAo0DqKZASJ8XC/oM15vDTFe65mdY1hMwsIlGPJuS9ouO6Xa1i31pVRYqU66lX0NOou749Rnde+7Ga1iX3NgOMfo899lAgEDAM/NZbbzWMHuaJaoTsV0jyRKNCwobpwmBh3hQiURHBioL2wAIHsmSRVYv2yA7GM0SzQmIHRAA8SN25zz77mHjYAAgKDJ8DEAmfccG46R+7KkCBrFxoJhgjDJw+iahFNrGhQ4caxk+7gBPGRruMefTo0eujZTFXknf87Gc/M/UJugFAoS3ADz98RoYzQEhHFwcQOprimdWfAwiZtV5utNlNgZQABK8/oH4TdlWPyYeoJlgieaVe/uU6qPgOTcyfrQ/qd9KjFSdo+7zXdEDx3XpvcS/ddE9IC5YEkkptEmEglcPk999/f5Mik9jVMHCkbqRzmPLee+9tTAcwa0JZIqnzN1oFDizK8ccfb2Jd0x7MmUxb5AYHbKChoP6cOXMMIyarFs8NGTJEO++8s2HyFNqmHlI/fcLsSdABk99hhx1MvxYg8Pfhhx+um2++2TwHOAFYLFq0yKT/RIuBuhUNCfNDMwLgwISANmLGjBkmaQfPoZJlvGhE6BvNQ3l5uUkv2tHFAYSOpnhm9ecAQmatlxttdlMgJQChmWRR5XQr1OCf+FRbXqgtiyt09pTPVFoQ0d+fGauZ7/XXtkPLdfa+n6pncb3+/WqRrr6ve9Kojcp9wIABRjpHWoYpIulvscUWxrcAZg7zhmEDEmCYAAYOKDJjwbiRxJG4kehRzQMiMBMg7e+5557GZMFz1LExtKkTG/Maxg0ooR6MGy2Cler5jIImADCBOcP6MtA2dcnGxRzQKAAUqLts2TLzg0kDzQjzYA78AIoAHJhL0BxgP+rZs6fJDU6/mBWYC+ACrUdHFwcQOprimdWfAwiZtV5utNlNgZQBBF9OSEN3WakB49co3OBR2efdNDJSoFP2r1Jtg1cPzyrSxNH12mlsne6aWawHXyhWVa0vY6iNFI/jIwVtBJI/En4yHf8AFzg4WmYPU8/04gBCpq9gasfvAEJq6etadxRIhAIpAwjBgkZtc8RCVa3MU7jBq9LNajVoeW9Nn1ivvJyI+vUJa12FVw1NHt3/bLEem12kcCT2ImQi0+j4ukjl1smPWwX4LaCBSGYBeCD1Y1ZAo5ENxQGEbFjF1M3BAYTU0da17CiQKAVSBhD8OSENnLBaA8aXS1GPvvugu4IrS1SaKwV8Uf32+HI9/lKRPl2Uo9VrfVq4NKBoNHMAQqKEdvWbKeAAgnsTNkUBBxCy7/3gijjCDoJUe4rNYoj5tTPMoxuOvUA+dfMElBP1qVFhlalR9eZCf+cWb26xcnsMU7ihWo1rlygabmzzgFIGEPBB8OeGld+9Qb5ARFUr8hRqaDYhEEFxyyEN+m5VQJU1zTcG9IMwSm2ej3swzSngAEKaL1AnD88BhE5egBR0j18UsWjaCxAYGtfTcbqO9fNKwZBbbXK4CnSgv796e4LyymOu8S+J1um50EotUOeagrttfYh6bH+0GqtWa/msK9VUvrDV+WysQrsAwr/+9S8988wzbe7cPdj1KMCV0mOOOeYHE3fpnrvee7CxGTuAkH3vAtqDSZMmmevmOIW3pQAMuJpOG9zg4op6Z5W+ytFZ/uEGGHwTrdEK1Wsz5WmIt0Crog16MPydvok2X21PdfH4gvIV9FK4bo2ioQbJ49WgA6/QdqMqtHefmxSt+lKRxhrV1Pv01BtDNOfj7gpVrZSi8Wk62gUQUPVwVc8VR4F4KcC1SySK2OIAQrzUy/56DiBk3xpzmwzBgBta995778YduT0mot5GtcnTpk0zZwfXujsLIKADP9M3XH08OXoqskLv+aoV9nkUCYc1OdxNU729NC+y1nxXl3Jzg0el28xQt21+ptrvPlDN4rcVLB2kQRMm67jNLtfO3Z6UJ4p2Q3q9fIru+PoiVdT4VfbKP1S//OO4XrR2AYS4enCVHAVaoYADCO4VsRRwACH73gWuhXMVmwiujz322I8Bgieqon5St2FS7WqpfIEUDf/YH23XXXc1V9cBB8SJ6YzSR0FdGNhCiyO1ut23VP7CfKPV4LaZd12tDon2UbH8ujW8WOVqu+0/rrl5/ep/yLUKdh9mLPTRcEhoFLYtnKXTB5ynIl+FAQdf1Y/T/313lZY2bE7IQq2Zc6Oq5j8RVxcOIMRFJlcplRRwACGV1M2sth1AyKz1ime0BG/jqjZOhsRv2bD4cqKa8Muoeo2W6tZI8673qGrZjwECN7pgWES9tQHs4uk/mXVGqEBnBDbXx5EK3RdcpYLCQjMvSriyRtOaummEp1A3hr7RSqU+WV7hmAPVbeeTmh37jO4logv7n6oJha8Yr75Vob66ZsU1+rx2vPm/ae1irZ51hUJrl8RFFgcQ4iKTq5RKCjiAkErqZlbbDiBk1nolY7TBwqim/jWqYAFOiNKbV0srP7LO68noIXltlMivSwJbqizaoDs8S1VflGNMJ5SqdRXq2ehVTwX1uao6wMQg+Yr7q8cBV8ubW6RIqFFbVd+sSybcrIAnpJoGj65+cZTeKLlEgT7jTPDCuq9mq/KNGxVtbI4Q3FppF0AgKRFhi11xFIiXAoSqxh4ZWxxAiJd62V8vWQABqQ7JlUikeM8juZI4DVWwkbQ8nvWZWomuSlmwYEG7A53BLIi8WlpaaiKjEtW0PYX2UNHj60Xk1GwsvoC0/Qk56r9Dk+rLgnrlr42qWR2fE11n0ONY7yBt6y3VB9F1elplqsvzG80GcXCI0tshxeOTfAHljviJCnc6zXQZXfC0/jrmUo0ZUKdQWPrX3CLd+lKJqsJF6nbgNfKVDFB43XeqevVqhdZ8I0WamhHZJkq7AMJDDz2kp59+ukPo4TrJDgq4a47ZsY6pmkWyAAJhyXfbbTcDCGwyNAQa8pNwkHPtjv8peNhT+N8CiLbMDyBCjhXCpuOtj0PdZZdd1pam1j9DWPRddtlFb731Vlrc/W/XZDbyMOHrt54wVt+s+kh9SgerclWDFiz4KhVdJaXNQvl0hm+Yenly9ExklV6OlCm/pNj4IgAQAKKxADQpncY04skpln/z3RUcsov8PYZJvlxFa1dr0urf68Kd3lTQG9Wny4O64cUSfVMWNE/6RuytyPiT1BjNUbR+nUKrPlfjV7MVWtK8BzZWHEBI9uq59jZJAQcQ3AuyKQokAyDAVE877TQ98sgjJn8KhStyZDglHDo5Sv70pz/pyiuvNPZsm2adutyyIakZn1M46LmmhzaCW1uEO4cRwNSsaplcLxTs7CeeeKJuuummH13nAzz069fPPEvCNBKrFRYWmt98TmI4K4FakIIWgs95FrrwOc9TP3Y8hHnHeQ/GhKaEcO+MrX///uZZ5mMzyqbT2xf05yroD2rs+NFas6ZcX365wNCExHUff/ipqquqVddYo2icV/JSNTerjWKtWAMAwim+ocYB8JHIUhP/AAdM1ssCUgsQAKf8cE0zWcXbfZhyJl8gFfVd32S32k91Qfc/aGLPheYmyLfr/PpqZXD9PYo1gRF6Mv9/9F14yPfvtVfhFR+r4bmLOh8gRHsNNNdAVFMhb0OtC4mUrDclA9txACEDF60Dh5wMgLDXXnuZEOVoOGMLadNhPnjBn3nmmebKHSnPMQnwHSHNYQIwW/KsEK0PUAHjtUz35ZdfNgnS+BzAMH/+fAM4+B7QcMIJJxgtBYneLKPn8913390wCeoBQsjwimZg8ODBBkxgQoDBkJSNcVBOOeUU/fvf/9a22267XoNAhldMDUiq1CMjK58R9h2AQsI20ryTpG3YsGGmXQAJwCidSq+igdp51P7qXTJAq8ML9eRr9xjaUyaM3VXbD95XtTU1mrfgBX2+dK4JRNQZBUZv4y8A4Opr6zTd21c7+rrr6fAKvR5Zo/D3Y0PaBuBYMMCzrDfP8ZO0PD153eUdc7C8g3eRcksUlUe75bygXxT8XaWeNfIqqsJgRHn+ZprVNEn/WHigZhWeq/ponjzhRkWrVyq6cJYin236NkPqNQg+vzyn/EXV1bXyvPW08r58W54koqnOeGlcn22ngAMIbaddV3gyGQDhN7/5jV599VVzXz624OsCo37yySf1u9/9ThdccIGR7nbccUeTjZUreBzk++yzj5HEyX/C9bz77rvPNEOCNhg4n1900UWiHyRz2qDAEGDKRx55pJHaeQ5wAShBmn/hhRcMEzzssMNMZlfqAk4ACzAPfHNg/oAQxkqK+rvuusukkH/++eeNJmP06NEiQB3t8AzmEQAHpl60Bb///e/N2I444gjjH/bFF1+YenaM6fAOeT0+bb3ZntplxKHyewOqaliju1//rZrCeP17tNfYEzV6wC6G0S5Y8a5e/vxu1TZ2Ti4aGD6hohsaGxWurtXwSL5+7hukb6N1uiW8SNVq9mmhoEVAm2M1DeTnAUyizQHQoQ1KTvFIgVxFc4qloT9RdOwM5XrqVfDlA/J/+aT6FDbq/KnrtEXvJtU2SZc+10svb/Y3hXqMkqemXJ73bpen7DOpqVZqJQxzxwCEM69TVVWNvHP+rbzP5nQoQGDTsnAWnbZ1gdh8bHZbUPFtzGmIF4If6ls0ycsSD4KkHs+0RSXVnmfbSpdEn3MAIVGKda36yQAISPE4HAISYgvOiDD8Bx54QFdccYXOPvts8zVMlv39yiuvmD06ZcoU8zmSI+DBpmWHQaOVQHNw6KGHGhNFS4W2DjroIAMMfvvb3xq/BNr87rvvTHU0BTB82idVPP4FFEAKP3yHiQQtBuYLgAKfwfSfe+65H8QAoH00FDZCIdqG4447zqSYxwfj8ccf15dfftnu8y+Zb6FHXo3otau26r+fvPKrtqlcz37+V4UizU6Y2w86TMN67GjOwO8qPtK73z2qhlB8XvfJHCd8A00UmqCcygYdor4a5S00Xdwb+lZvR9euv+Jo++Xch6liCgIQ8MP68F5htmrLub6pOUXye6lpjz8pmt9TnlCdfO/crINLn9cFU8pVG/LqurcG6GGdLg3b3Tgkepe8ocB7t8jTEbcY4nJSRIPQiQBhs80204QJE8zGYrFYPAqIGgbPgrGoLCCLyuf8D7ONRXxnnXWWQfpsaDI5zpgxQzfccIOxBVIsWKB9ED3e06j/8GIGgeKwhI3Tto2kQh8WeNA/6HPEiBHmILHez7RngQbf24yR9GtVlrTB5xxgHLBIOBYsMC76pL61hyVzEyXalgMIiVKsa9VPBkDAXABzvOWWW9aDevYD2gP27sMPP6xrrrlG7GkLEPiNkyJ7ygIE9i1nwuzZs9cvAuNjn/30pz/Vtddeu8nFufjiiw3oQIpEEkUzYME/vgwAB8wE5BagsNcxF8ydO1fHH3+80VAAJixAAJS88cYbP7g5xhzQFMTmJsA0gmCEFoJn5s2bpxdffLHTXiTOJ8wfFBsHIddXokHFO6gg0FOLKt/QuvpmswqF70Z038uYFZZWvau19d+YzzlXoSVgqCNuC3Bm4s/SUFevcTUBHeofIJ+ANx49HFmq9/Lq15//duy8ZzYuAmvNOGmHH870eITERBaqqddY1e18rqL+PPNYia9K95Qep565tbpz+R66v2K6aoq3WO/H4VuzQHlzr5WvZlVc3aReg5BXIM9pV6mqokre1x9X3udvmdQWHVFYLByQxo4dqzlz5hjmzt+gQhgndkJUhKNGjTIHCZsRxN63b1+DuHmZrQMSiJ7oXWx4mByb7/bbbze/eXFRPQICQJv2ehUvBH8TO5zvOGxApTgZsdHZNDxLX9hFOZCQIDg02ORIAdaGBfpkfKgkOQyox2e8wBxatMFvfpAiUHGymQAlgCTGxe+ZM2d2BOk32ocDCJ1K/rTvPBkAgUnCYNkf+AdwULNP2dfkjkEDgAbhnnvuMVcRUdu3BBDQQiC1P/HEE+agZ69h4wdktAQQAPDsWQA+gABmf+utt5rnJk6caPY87XBtkf2+IUBgDJgT2L8ING+//fYPAAL7H/8KTBXWDwEfBnwZ7L7mQOd8QNBAwKFfGBagqLMK5x1REDn7ECr/yyQ9ht1GY9T0dox8TonGhCveY489DDjj3O6IZE2c19Ac3jC02qMjfQNVIL8aFNFdkSVaUuQxglisEyJz5Dnrf8B6A5BsHopkAoSox6t1O56vxj7jDa28iuic0lt1ROHjurXyMN1XfbAqIsXf+/wBtzxSJKzi929W3revxPU6pBYgBIIK7H6IQlvvrrrFC+Wb+5T8q7+Taio7xFGRxeXFRIJmw2ITHDp0qDksWEhslBwi2P5ApUjh2AXZ0Cwwqjmr/vv5z3++3hkJym699damPa5TcSiwofnNRoXpw4w5YLBbsjnHjSNQhcwBY+9m4wxFASj885///AFAYFyXXnqpPv30U/OCYksEHDAfJCMAAiCCeVGHQ4KDCXUoEhCqxZEjR5q5cAgCOnCs4sDqzOIAQmdSP/37ThZAgImzR9iLHOLsJ0C8lWBhwjBRfAHsoY0zH4V9Q2H/o43g2iLnAfuLvcahCajY0IQBQICJsSftjQLaR0igPsyNvhgDQoPdw7HRBdnjnEeYF2A8CA0IOex/aIPZAoYL4EczgHMiIIDnqM+YcUhEa8oZxGfUAxR1VonNxcDNkrYySc4OfDkACNAv1YU1R5g0NxKq6zSmKc9cbVwaqdPnOQ0KFOYbEIaQaU0H8BXWm3cOoY3PeR9YB8BCMk0MMPx1445T9eA95K9apq1Cc3TTuAd0V9VBuqsKcFCkQO0qFS59XVGvX7X9MdtI3T+6Tbmr58dFvtQBBNTnux0g/877q7aqSqGXHpZnyDCp9wB5HvynPHWpT4mJ1M5BgAqPRB9IDDBxNAFsHkDBt99+qz333NMwbv7ne7QNLDwo3fodWNUfmxcwwDN4GAMQ2MQcPqgw77zzTiMh8CLz2dFHH22cigAItMcG5gWiH9SMvOxsGMwCsRoExnLyyScbT2teKg4qDjAcnDB1MDfrXc2BgGTBQQNA4I43SB3NCP3SB3W4ggW46MziAEJnUj/9+04WQGCm9rDmgI8NkmSkLa+32fns+xsKfGYZF89R7C0E6lGfuhz6tIfQ0ZLjn1Un86w1B9r+kCRjx0I/1kwYuzIb+jfRF+1Rl3EARCicUYzZfsb3fMZvJFbaYbyxvlOd8QbYbI6Mx14fbcs4rG2/I7M5Wi0CdA43NCpKzoVAQN6A39AZpm/fA+aH1haaW1O1XXMbH6Et897UM+FgkepLhyu/bpnOm/iNyitD+ovvz1rbbZzx9ev12b0q/Xa20R6E8noo6g0oWL1MnmjzjZHWSmoAgsernLETlXfgCQr5c1Xz/EMKr/ha0SPOkIq7S++9Ku+/bpYn1Oz9m4pi7y+zeZCe0RygjkNDACgAkcNIWUgYKz8wbDYY/gUgc9C/Rd7YNLH1gYbxLcB5CVvh9OnTzSZ96aWXNHz4cAMMUO8jtSNxABqwbQJIrNmCDQ+D5wVDEwHjR/3IC4bDFBILqlFeNtSiAA3+BnjwwqKlQOtgPZnpa/z48cbGBdAAGHDVirHygvI/C83Y/vGPf6SC3HG36QBC3KTqkhWTCRC6JAHTcNKcQ2g4ATbWPt+WYVrpG4Bg/Tba0k6iz3CGogWAl9gCYONdjXVUpx6Op7F+CNSDr8SCxUT7j6f+Vn0btXnPRj31aYGWDdxbK0cdIX/DOm32wXXKr2j7FdcUAASPAkO2UPEhv1Sk1yBVfDhPy4CjEwAAIABJREFU9S88JAUCiu66r3xbTZQHx77XZsr7zP0pBQnxEDbb6wA6UJOxOVGdYr/szOIAQmdSP/37TgeAYA/49kRVbI3Sltm0Vd3eWvvp9D1nEFoEhByYZVvV7NYhHAGsI5wUY2nIelkHc3tttKV5UM+aGKgHgOiINS4IRtQUlhrDHjXk9FT5gN0UqC9Xt1Xvyh9qu7Y++QAB7cGEySo57HSVr16n5Z99oqi9/5lfoLwhg5Xft6dUvlK+6y6Sp742nd7lrBsLqBZtBQgYh0U2aGcWBxA6k/rp33c6AAS0fWjoWsozAwNAe4gDYVsBBKYFtI1oK1G5o+Gzvk5tWSGu0aEdxIyYTvEO2jIX90x6USDpAIH7CYERW8l34MlatqZGdTV1P5ixN+BT0YA+yl25UP67/ipPJ4fRTK/lyP7ROICQ/WvcnhmmA0DAERCT5IMPPvijqeDgTICl//u//zM3EdpSAO2YHvEzwpEZh8JENXs8A+AHYOCIifkUs2S2JnRqC53dM+2nQEoAgie/SE2DtlSdN+f7bFGxub2j8vh8yqtaIf+SL9o/A9dCRlHAAYSMWq4OH2y6A4Rjjz3WOALDoLll1JYSCxDwY8KvKFHGTjAogifhT5WsYHBtmYt7Jrsp0C6AwJUVl80xu1+QZM8OgMCV0dji0j0nm8qZ216yAALhhnEYg3kSrwRpm/wE3B7CTMAVR2KacMOIQ5DryKj6Uftj38ZJeUMNAr483EriJtAf//hHEygJJ2auHXLLiTgrXGfEeZirzVyJJFojTsg4IzOep556yjgt26vVODLjFE3gJq4qHnDAAcYkSOHWFX3yGSACGzhJprg5deqpp5q+aQtzB58R4wFzA5EU6QtTBt+jnUAjwk0uTBDsN3JIcOOKsR988MGmb4DPdddd96OXB98BblHR1tSpU03AJ2vKoF/+tvEmeJhxoiGZNWuWaYvrnIyf2AX2hgWf4RPFjTKe3TD74cayIcZ+bqPTcsuEwli40sl4Yutt7O8NJ8q7QV3WHhMQt9mIp3H99devb4+4GNCBW2/Qjivr0JKrqIA85hIbudcG4ePWG74TOJzb2yj2Zkp7ditj4Abbo48+am6rWJrg92D7sTdd+N/SIl6/iHYBBOIIdKQ3aXsI6Z5NDwpwCBPu1gGE9FiPdBtFsgACNnkOeg5mmCzhlTlIYUrEAuFwJvYIkQhhLNTh+jKfA2C5274hQCAGCfUQimiXGCMAARg6YZeJnMgNJ65WY6a47bbb9D//8z+GURKNET8g+sREAWDAxACTh6H/5S9/McyXm0gwIA5wGI1N/gPoOOmkk8z9fxg0fz/77LOGUXEzi/6IfQIgAShQj2epB/MgJswhhxyiv/3tb8aj/qqrrjL5KGDUhKBmruYqH0n1NiiAh2OOOcbEfTn99NPNvGCG/AAEGBvz4DYVztAwaMweXK9mnoAxkkYRN4I+ABvcauCmFbFceB4nRvyjoDsMH8aEdoRxMw+AlA0yx7rCeFkLmC65M/C/oC2ukQPSqEuQO9bIxiSAtjBUzDot+WIxBmLFALj23Xdf3X333eZq+CWXXGIAAGMD2NnnaZcbGviqAD6ZI+vBbTPGDsNmbQCc0JgxMjduzEFTAKSNmNvWfQhgYU5EyoSONvkXNLJAh3WxibvQXvFjU5231m+7AEJrjbvvHQXioYDTIMRDpa5RJxkAgQOQa8kwCYAC0itSP1eIYRgka6JcdtllJjUzAIGD3Tolcv2ZgzYWIMD4AA4c8DAIDnjABhEZbXpptBYUJO4zzjjDXCk+77zzTN/2ujR1YOw8HwsQkFKJrIi0b6O3Iu1x5dkGbrIBkwAoLQEETA7kZjj33HPXvyxoJ2BI+CoAXGB6FMZBjBWYHMGd0B5w1Romt2FBSmYeABOYMTSDvlwVZ0xcreY5GD/9wPgALLSPSQYGBX25Cm5zXbBGNvojtII+aD0ABDA2vqddQACAA+aPFgSwwFhZDyR3mC7aH8YCgweMwTT5HxABAAKcETwO+rC2aE4Y04YFev/5z382mgPmxZzoC80QkTMZFxoatFG8pwg7/EZDRH3GSJ/QG0DAHPBTATAAIgFUrC1jBiARq8Zm7mzL7ua2BJon6M180F6g4eL9stF9AToANYQyaMK7BA15b+NxWHcAoS0r455JKgUcQEgqOTO6sWQABMIVc1BzcMLouZVwxx13mEOSAw9GQYEZoE1Ayo0FCDA/gEUsQIBRo6LnkEXq4/CH4aJF5XBGsoY5U7gBgVYAR8bzzz//BwCBg5kMjVbSsxoEAALtw+AsQIAZoVWAQSEpM3763hhAgDFg+rA5JhgLzJKU1tAVJmZDLjNW5se8ibWClI82AGl5w+t7G2oQ0HagqYDRWSYOaCJnBGYENAVktMScgtaCdUD6Zm4ABCI/AiBg3AAK/CkADzBRJHKkYdYP4MbcYcCAD8YIs+MZbpIQqA6mDV34DRhAK0HftAdgANygtYEuaD6gJwDAmjs23CysI0ABZos2ASBFv6wN/iKE6qcvmCvvBGCB9NpWu8R7AUCgb9aPdgA9zAuwAQji/UMDxc0VtBXxqvs3HCvz5h1EW8QYaRu60T4mEoAAv6EzdGBc0B5tDJE64/F7cQAho4/T7Bi8AwjZsY7JmEUyAAIMEmkYZgKD5ICGWbcEEG688UZziBKa2WoWkMBhfhYgwDDQPnDoW1U8c0UKRKqFQcCELNPEZ4BnaO/yyy83jABmhpr3wgsvNNoF64NgAQImCqRz1NFI6hRUx0i+MEyYC+ACJgtAOOWUUwwTRKUea2LAN4HPqMOcACoAEhjEhgDBZqbErACTQuI/6qijfmRmgEnAGGGQ+BDBhPmNhgabOmAH5s54kFyRigncxhpg1kHrAhPjc8AHki8RXtn3aG1suHvMM6w/IMhqf/gfyRxaAMQAb9asDbBjLLTP/Cj4IKDuR2pnvIwLEAdDhjEiQeN7YjN0bvjOAoaYL8AEusLg0VZgtmBtUOPTH5oN5s44aQtQyNzQHkEPNAdoPvBrYI15FpDEmtA+zBzgZLNwtmXv8O4BVmiXPhk768h46M+G5KZ/myyKeWD6oO94SrsAAmjaFUeBRCiAOhaJJbY4gJAIBbO7bjIAAgflmWeeaQ5C1NA4HiJdw+Q43GEclF/+8peGcXOYkvUQlTFSFQwdpmkzICIVIiEi2ccmCYL5INnC2FBzcxADIrA/0y6MDokc5kjftEkGWOaIdMxvDnOAAWpvmAxSK9oLGAd+EzwHU6QuzJA2sB/D7JGUYX5IoUjPABVMBphCYA5IucwbJgcDgaHAxCmoopEs2Ys4KfIc4COerI/0BXDB+RPm5Er2UqBdAAH7UkvFZuKKl2yxGbvifcbVy0wKuGuOmbluHTXqZACEjhqr7QegAMNFC7BhwRGQmwHtyUHQ0fNprT8AE0CqLRERkcYTjS7Ynv5am8uG36OiRwsQz3oBqqABgA4wCFhCrY9WAdNLS/RBswQQRPKPp1htAxqNDdtjrGg0Ein2lgNCGVqy1krSAULPwmHavBde6rGxDzY1jKgWlb+jlZVoIzomDXRrRHHfp44CDiCkjrbZ0LIDCJm5ivgvwPRgrDAVVNpoW9jvaCpsweSAGQCGiqYHDQwFrUhL2giYLaYh8uJs+D0aEZuBkzYwW2BeaU9yKjRA1iwBUECTgy8BqntrXmDsfIe6HrBjE/xh4wcgAGiow3eMHw0VJgVrXsEEgpYqHhBCXcxbmMIo9soiNEaLg6Mn/TAeQAnmNJv3ATBgk3cxB/7GZwGNFxosfEQYK1o1G3ALGqOlsjRMOkCYMOgI7bz5CYpEf3xdpqVX3+vx6e1Fd+udxffF/UxmbiE3aijgAIJ7DzZFgUwECByy2Lxx+NuwoNrH9t3WsMyZ8LYwR8wgOOwhTcOY8OInTgQZaXEOxDkOZ0luAyC5YlrBbwApGDMJzBWGz3MWLAA6cM6EqWH+QOrFGRIggDkHUwpMDuYGY4aBsxY2/kJbaAeAwVeCmy/2dgtjYk6sL+YVHEoxKWGegfnDfOkb5oqkz9ygCcwVhg5dcGjkf5g48+d9wEdmUwVtC06VmJO43QIIoD/myndorbiuyjj5DFMSNAMk4RSJiYk4EwAItBYAAcaFSQqnS668sh6YffEF4cYDJjkABqYpAEXSAcLEQT/X9oN/rkgkToDg9emdb+/VvCV3KxJnCsq2LLx7Jj0o4ABCeqxDuo4iEwFCutKyo8bF9UykUhgk6ehhVAAGmAyMCwbFbyRu1hcfDQrSORIyDJ66OG7ChAEEMFAc/fjhJgTggOuiMDaYLEyY2yrElAAo4JVPe7/61a+MY2hbC/EeiCOBZgPNgJWk8f+AyaMZoW975ZQ5AyDQigCOGCfOizhDcpsDLQlzBAQBaqAL8TZoqzV/D+rgZApzZ24wduaONgLgxLwxa1EHnxeucAIQuLHBOUt/gBdAGACWdeB5xgWNiNvBzRP8UrgVwnVXbt0A5nAwBewkHSBM6H+stht4rGH2Ho/k8XoUCTdHcMLqEI1E5fV5zO9oVPJ6/Hpv6X16d9k9KQEINgNXPFc6NvVSoSoCtdmc6229mrKpPjaVZ94+Z7PAMZ54E7OAqm1OeVBha4V5xlOvtXZa+t4BhLZQres84wBC5q01UihSMiYGNAY4r9tw0kR+hHGhLUCyRQKH+aDG53YCAIBgREjtSMgwwenTpxup9uabbzZt8j1XVa+++moT/wEPfG4y8Pkf/vAHAyi4NQFjx8mT66ttLQAQxoWkzRg4ZwErOIBy2wWpn3FwK4bvAADc3IDZ8wx10HIAFLiNwveACc5t5seZzRzhI5hNNlXQDKAJQEuCpoD5wbzZI4AMbrJwfZcbGpzXaGgYP/E9cKqFwTM2vsfMw80LtAPQGiAEnaAX80PTgLMq1zq5gopjLXEgkg4Qtul7jLbtd4wikZB6D/WrxwC/vprXoJ6D/PIFPCpbHNLQbYKqLA+rbGVE/qBP7y58QPO+vislAAHUCrIDNUEIGCWLY21KLJB1NuGlBjHaaGDWAQTGzUsIGgNo8HKySBAv1t6DWoqFsu3wHHVAmXxnQ2tadaNl9tYJh9+8UKBx6oNWeZbxMBbGzcsGymYs1KMOLyrjoD/aoK4dO/MFHdIeC44KiTqMgTo8y3fMm/apj+c0LwjfUZcx8Dk/zM+GfW1LjnMHENp6dHWN5xxAyLx15jogZwwRGwEDaASQsrnuCSNFwkaKxl8ANTfgAImYejBAPkMDgOkABguA4CzC9wDJnDOU+vTDbyRrGDagAIkY7QTnOecU5yHaiLYWxgajh8lzPsPQGQvvJWch1xQJvwzw4XvOaxvIib754SylLs9wZjI+G7ESps048UFg7JsqAArOdNpBi0C7+BhwbgNi6Ju/4Ukwf0xZjI/bNvTJuOgf+trAU/QHPRk7WggABLyEZ9EyYOqhX+uLkHSAsHWvozS+9zEKh0PaZt98DZ8Q1LM3VGrLSXkK5Hr06av12u3YAi0PerVsXUSBXJ9WLP1MLz5+k75+r/n6UbIKhIHZ8YI+8cQThig4oUA8CmgQAlOHAiPGxgNRKKAq7DgADF5eAlDwssA4cRzhBWcBaQOmCUpmMVkYG9aTOlw54n++syiZ39jc+M3LTR1QHotu+2S8IHOCYFBYeCKjEVLV9ssLwZgYA/UZOy8LaJPPeTFwZgEY2DCg9EtdVGFsbF4UNh4vCf8zfuZuVWrUAyDxglp7H+NpDQE7DUKy3uSu044DCJm51gCDeMP3pmqGnJOcYW0RXOyYONvhG7yHLRUENM7nRCIgwoABN2gkMDXYmASpokMy2006QBjX/Sht1fMoo0EoKPUqv9in8qVNyi/xyeuTqtdEtNkpJaod5tOz76/VjluWqF+3gCpWLdWDF5yltUub7VPJKKBTXlyYJy8O6iwQKkwYkIBWAfSFWgYGCbrDDkZdwAJeuCBJVD1I3DZABy8ibcBEsTXRJgsPM+ZFACljJ4JRE5QDpk7gEr6jPneeQW6oiwAHtIMdjzqo0nhJQXKgRIAAmeP4HLUS6jyACoACcAHzZg6AABg9WgKYOSDCbhSACyAIOoAoARWMH9UVgACnHubAi8+YoRvInb8BKAAK0DoAgfZtnHVok2hxGoREKda16juA0LXW2802vSmQdIAwpuRIje1+lKIbcTj09PCq2x966duKBt31zFIdO62/hvTNV9QT1UeP3as5N/04m1hbSAhjhRnDWGHAMFACjwAGYLT8hnlTD8cRmCs/fH7//febz22EMZAf6jKyq1EIqAIqRIJGO4F2wSYiAWHihAMDhhnzObYdNBgwblRtqN1gwjwHMMGmhgcpjjCouECwgBHUdEQLQxVFP/RHPQACajAYNao2GDfAAZMDcwB44HgSG2ubsRBlDfsXEcnQRqCuYrzWSQW7GdntsAHi1WqvKjFuwAV0tNnYCDJDmNpEA6U4gNCWt7nrPOMAQtdZazfT9KdA0gHClkWHa3TxkS37E+CUOC5XwV9317qakGa+vEL7TO6jbiVBKerRyg9e00sXnZMUqsEQ8UJFtc6hA0BAMocJoh6CQSLRI6VjV7fZr2DsSNswWpi0ZYAwSZg0z8GouQ6Dup3vbdIVmCdqeTQRMF/GgC0fAEL8b56H+QNcqMO4bLIPNB1oLOgfcwRaAwpjZcy0DaChLRg8zB/gwLjQIOCgQh3mAYCBwaNBQJMBKEFrgGaEH9oGfMDwMblgagGwoCnANoYWhTnSNpoWHHC41oNWg3EDmJgLiV8SddZ0ACEpr3fWNuIAQtYurZtYBlIg6QBhZP6hGl14jCL67zXHaDRiSOPhGsPIHIUv6KmmqDTn7TLl53o1cnixSoqDWvXWLL3z54szkIxuyPFSwAGEeCnVNes5gNA1193NOj0pkHSAUOIbrgE5u66PiohUOyD4EwWUr6rIYq0NLlDepVOUM3iIli+v1by3yhRuimi/gwZp0bWXatXs59KTUm5USaGAAwhJIWPWNuIAQtYurZtYBlIg6QABPYFPOT8gxS75f1V1ZJkWNj6qmsgy5Y4bpYHn/kHeHn21pqxeNZX1KvzsRa2885+K1NdlIBndkOOlgAMI8VKqa9ZzAKFrrrubdXpSIAUA4ccT7eEdr3WRLxXW95m/PB75e/ZR/qQp8haVqH7+e2qY/76ijQ3pSSU3qqRRwAGEpJEyKxtyACErl9VNKkMp0C6AQIhHVxwFEqEAAIEQobHFpXtOhILZXbc1gICDLiF3XXEUcBRIPQW47n/eeedttCOc4MlJ4QmFQtEN771zbdAVR4FEKEC8BW5VOICQCNW6Tt3WAELXoYSbqaNA+lNgkwAh/YfvRpgJFHAahExYpY4ZowMIHUNn14ujQDIo4ABCMqjo2tgkBRxAcC+IpYADCO5dcBTIHAo4gJA5a5WxI3UAIWOXLukDdwAh6SR1DToKpIwCmwQINrJeynp3DWcdBchKRvTG2OIAQtYtc5sn5ABCm0nnHnQU6HAKkHKALJAtOik+9NBDJsFQXMXrk6egSIpGFa2uiOsRVyn7KOCuOWbfmiZzRuQVIaNqoiG8kzkG15ajgKNAfBQgQSFahHYBBE9+oQp2+6mCI8YZgNDwxUeqeeVJqbE+vlG4WllDAQcQsmYp3UQcBRwFHAUMBdoFEEqO+JWCI7dW/XuvST6/8nfaS3XvvabKh65fH5LZ0blrUMABhK6xzm6WjgKOAl2HAm0GCP7Bo9Tr/L+p7MozFfr2K0MxX5/N1Pt312n13y9S09efpJyKBQUFRmWJ+rJ///4mo2FrhXTP3bp1M2mOycBIIXsjmR/bW2iPHzJJdrXiAEJXW3E3X0cBR4Fsp0DiAMHrk7w+FU6ZrsDAwVp7+1WSPyCFQlI0otITL5a3qFR1815S42fvK1y+Iuk0BBhMnDjRMONAIKBnnnlGU6dO1cyZM0UISdIxkzKZ70iZHAwG1dTUZD7HrjJixAjzGSmcv/rqK5NSGaZOHdq04IG0yl6v17QDsAiHwyIgEE6cpIOmPZyvACmkVCZlM+3xQ6poolXRhu2b52mPtniW50hVzQ/2WcZGHcAKcyQhFu1nQnEAIRNWyY3RUcBRwFEgfgokABA88vXoo5yxE+Ur7aaGhZ8rWlslX89+8vcdqPCaVar/8E0Fh49T/sQp8vXso0jlGq279xpF1pbFP6I4ag4cONAw99dff93UhtkDEN59913jSQ9DX7t2rWG8n3/+ucaMGaMvvvhC22yzjanfvXt3AyAAAx9//LGpx9/Lly/XqFGjDBOnzZUrV2rAgAGG2ePRCZDYZZdd9N5774kxLF261LQLQ99yyy3Vr18/zZ8/3zB7QAgAobCw0NTv3bu3GRMggL4AMjB/fgMKysrKtNlmmxnQAKigf0DIp59+GgdFOr+KAwidvwZuBI4CjgKOAsmkQNwAgZsKJYedbgBBpKJMNa/OVHCL8crbZpJC5Svl791fTV9/agABDov+3gNVctipalj4iar/c2cyx2yY8+DBgzVnzpz1AGHatGlasmSJMResWrVKRx99tL788ku98cYbmjx5sgEP1PnPf/6j8ePHG1AA84ahozEACMC8aePQQw/V+++/bxg/moFHHnnEMHwkerw7AQp77723efaTTz4xzwMqtt56a8PwYe7l5eWGuR900EGmTklJidE8cB2Qfog9Tz3MIwsXLtSMGTOMFgNQQb9oPr755hstXrw4qbRLVWMOIKSKsq5dRwFHAUeBzqFA3AAhd9tdVTjtUK276+8Kr10tX6/+6vmbK7XmlivVtPhL+Xr2Va+zr9SaO65SwwfNkn3O+EkqPepUrTzvqKTODn8DmPGrr75qpG+k7r322stI9AAEmO+BBx5omCvq/kmTJunll1/W/vvvr8cee0zbbbedYeo1NTVGukflD2hAC/Cvf/3LJB3697//berw7LPPPmu0A2gRKAAEa25AE4EWAa0Akj93/wEkH3zwgdFOTJ8+3YATxowmAgBBXUAD2g7AAM/vt99+5jd1aAcTBM/efvvtSaVdqhpzACFVlHXtOgo4CjgKdA4F4gYIhdOPly83qIoHbzQjzZ/6M+VP3FWrLztD+ZP3Vd4Oe8rXf3M1vPOyKu79u6njH7i5el18rZafMV0KNSV1hpgYSA4Ec4epDxs2zJgEYOiYGIjjAFPfYYcdzOdvv/22xo0bZ9T4ixYtMhL+HnvsYcY0b9488z9aBaT8sWPHaquttjLPoBlAwkfbgHQPSKDeFltsYUwA+D/gY0D/U6ZMMe0AKNA4YK4AJAAodtxxRwMO0CqgiUDLwTh32mknM4fZs2cbAAPgwNTBGDCPoMnIhOIAQiaskhujo4CjgKNA/BSIGyDk73uUgr16a90910qRsPImT1fhT/ZV2Z9PV96EXZW7zSTjvNj4+TzVvPSU5PEob+dpKtr3cK262KWPjn9JMrOmAwiZuW5u1I4CjgKOAhujQNwAIbjFNiqecZKqnrpP4ZXfyhPMVY+zLlfFI7eo4bP3pHDI9BFtapDH51dg6JYqPugXqps7W9XPPuhWIMsp4ABCli+wm56jgKNAl6NA3AABQFCw1wzlbbubIVL1cw/JW9JdBbvtp2hd5XqAUD//LUU9QRXsvKfqP3lPlY/fpmhNVZcjbFebsAMIXW3F3XwdBRwFsp0CcQMECOHJzZe/z0ARYjm0bLEiddUKDBwmf7/B8gQCUlQKrVyiaFOTPF6fmpYuMlchXcl+CjiAkP1r7GboKOAo0LUo0CJA4HpdPFEJuxap3Gw3RYG+ffsax8zY4rI5unfGUcBRwFEgcynQIkDI3Om4kacTBRxASKfVcGNxFHAUcBRIjAIOICRGL1c7AQo4gJAAsVxVRwFHAUeBNKNAiwCBe/tEFHTFUSARCuy+++7OxJAIwVxdRwFHAUeBNKZAiwDh8ccf1/PPP5/Gw3ZDS0cK3HDDDQ4gpOPCuDE5CjgKOAq0gQIJ3WKIkhq5+1it7TFO8ng30V1UedVL1XPVPPlDtW0YlnskEylw9913O4CQiQvnxuwo4CjgKNACBRIECB6V9dtZZf0mbRQgRD0eNQaKVVC5SEO+elg5DWsc4bsIBRxA6CIL7abpKOAo0CUoEDdA8HiiKiqV6lSoivoiyQN9PAr7cgUoCDZWmiyOEW9AZf0nKewNaODimQo2VnQJQrpJSg4guLfAUcBRwFEgeygQN0DIL4zqgJ9H9Vn5CD3z/ng1RvyGCqFAgTzhkPoveV65dSsMaKjP66Wox6/culXyRptDMCe7kDKZVMxkRiSpUjJLr169NHr0aJN+mZTRpGRubyHZE0mayCAZbyFRFHMkWRSFWAMkiCKh08ZKz549TcIo+uro4gBCR1Pc9eco4CjgKJA6CsQNEHLyovrJAVF9t7a3Xv9woMJRfBAAA70VkU99lr2iQFNVs2IhxaWkpMRkZiS9M2mXN3XjgqyLNgV0vMMilTQMloBRMHTSSbdWiouLTQbI119vTnUdW3JycjR8+HCTKXLt2rWtNWUyRwJQSBlNxkmyQ1IKCgpM5sjGxsaNtkEGScb87bffttpPsis4gJBsirr2HAUcBRwFOo8CcQMEM0SvT3lDxygUiap6+TLzUbOc6tG67mOUX/2tiiu/TvlsBgwYYNIrv/baa6Yv0ibvuuuu+vDDD02KZ9IxAyBg8EjdfD9r1iwdfPDBRvqeP3++kcxh3KR/RkIHELzyyisGTGy77bZat26dSdO8zz776MUXXzTMebfddjOpmdEw3HrrrTrppJNUX19v6tHWxIkT9dhjj5kU0/TBeEKhkLp16yZiAnz11VeG4ffu3Vsvv/yyBg8ebNJHw9A/++wzMwa0FbTDuB555BEdcMAB5ntSUqNRYHykuh44cKDq6upMWmuuF/bo0cOMBZrQx/3335/yddiwAwcQOpzkrkNHAUcBR4GUUSAhgOArKlXPKYclvAyvAAAEmklEQVSptniI3n9/icJGsG6GCI253eSLhDT4y/tVULM0ZQOmYZgjzHXOnDmmn2AwqKlTp2ru3LkaNGiQ8vPzDVNdvHixYaao3Lfbbjs99dRT6t69u3mWNp544gnDXDEjwMSXL1+uFStWaKeddhKS+LvvvmvABloKgAbMGxU+TP/zzz/XhAkTTJtoKcrKyjRmzBi98cYbBiDA0DFRwPRpG0ADCODvkSNHqrS01PRH3zB0xjJt2jQzZp4BOMDsAQiAG/oAhDA+wACgBE0H5pU999xT//nPfzR+/HijpZg8ebIDCCl9A13jjgKOAo4C2U+BuAGC1xdV38FehQoHa9XqXNVWVDQnZ/LnSx6Pol6/gg3rlFeLH0JqCxL4NttsY5gr6n8Y7YEHHqgvvvjCqOdhnuQFgAmjaofB8wwmCQraADQNxHrYfvvt12saaIcfPsvNzTUSPyYBNA/85nkYPWAA9T8M/ZlnntHYsWPNc4ANJHq0F2gtADBI9YASTAz2b37TP2NjDpbBAxQwIXzyySdGW/HCCy8YzQiaDcAAbdIP82JsaDreeecd7b///kYjQR/QYNKkSXrooYdSuwgttO40CB1Octeho4CjgKNAyigQN0AoKI7qiNMjmr9yhB57e3vVh4JmUE2BQnmjYfVf9JTya5Z1iA+C3+9X//79haMiavZFixZpyy23NOOpqqoyjnwAAr7DVIDEjRaBZwAUq1evNloGGDSMmjqABrQO/FCPHzQAJK0CFAAQ0CDwOYBjwYIF5nP6pn1U/0jwMG76ph2epS6gBa0B7dEv7WAuwNxBu9bMgdYCDQXAAkAA0KFtxolZA21GdXW10SQwZrQMaAyYO/OiX76nT7QfHV0cQOhoirv+HAUcBRwFUkeBuAFCMDeq7X8S1Yq1pfroi14KR7zGuNCQ10OeqEfdyj+QL1Rn4iNUFQ1R2Jen4oqv5Iu0/wbAxqYPUIAx8gPD5QfmiIoes4N15rNmAlsHEwG+BNTb8Dd98RnP8D3t2Tp8x+eU2M/t9/aZ2HHY9mDwAAPAC/3bYseAyQNNBE6OgBzass6Rtg7PtDRmNBk4bgIkVq1aZYBJMm5eJPraOYCQKMVcfUcBRwFHgfSlQNwAwTAnfA1yStWY0804Jv638E3z/xGPX6v676aIL6ghCx50gZLSd+2TPjIHEJJOUtego4CjgKNAp1EgQYDg0ap+k7RywORNhFqOEi9JRRULNXDx0y5QUqctbcd37ABCx9Pc9ego4CjgKJAqCiQIEKSG3B5qyO31/d2FjQ8r0FRtHBZTFSgpVQRx7badAg4gtJ127klHAUcBR4F0o0BCACHdBu/Gk14UcAAhvdbDjcZRwFHAUaA9FGgRIHAXH+94VxwFEqEA8SNiC8GhuJrpiqOAo4CjgKNA5lGgRYCQedNwI05HCjiAkI6r4sbkKOAo4CgQHwUcQIiPTq5WGyjgAEIbiOYecRRwFHAUSBMKOICQJguRjcNwACEbV9XNyVHAUaCrUMABhK6y0p0wTwcQOoHorktHAUcBR4EkUcABhCQR0jXzYwo4gODeCkcBRwFHgcylwP8DyrJm57EZiUIAAAAASUVORK5CYII=;" vertex="1" parent="gwU3oHrJpf1aLOah3w9X-1">
          <mxGeometry x="50" y="250" width="1502.99" height="870" as="geometry" />
        </mxCell>
      </root>
    </mxGraphModel>
  </diagram>
</mxfile>
